<?xml version='1.0' encoding='UTF-8'?>
<svg xmlns="http://www.w3.org/2000/svg" viewBox="0 0 2720 1568">
  <defs>
    <style>
      .cls-1, .cls-2, .cls-3, .cls-4, .cls-5, .cls-6, .cls-7, .cls-8, .cls-9, .cls-10, .cls-11, .cls-12, .cls-13, .cls-14, .cls-15 {
        stroke-miterlimit: 10;
      }

      .cls-1, .cls-2, .cls-3, .cls-6, .cls-7, .cls-8, .cls-9, .cls-10, .cls-11, .cls-12, .cls-13, .cls-14, .cls-15 {
        stroke: #000;
      }

      .cls-1, .cls-3, .cls-5, .cls-6, .cls-8, .cls-13 {
        stroke-width: 2px;
      }

      .cls-2, .cls-6, .cls-11, .cls-12 {
        fill: #fcfcfc;
      }

      .cls-3 {
        fill: #fdfefe;
      }

      .cls-4, .cls-5 {
        stroke: #00ff30;
      }

      .cls-4, .cls-5, .cls-10, .cls-13, .cls-14, .cls-15 {
        fill: none;
      }

      .cls-7, .cls-8, .cls-9 {
        fill: #fff;
      }

      .cls-9 {
        stroke-width: .75px;
      }

      .cls-11 {
        stroke-width: 5px;
      }

      .cls-12, .cls-15 {
        stroke-width: 3px;
      }

      .cls-14 {
        stroke-width: 4px;
      }
    </style>
  </defs>
  <g id="Layer_3" data-name="Layer 3">
    <polyline class="cls-11 interactive-machine" points="2327.77 1225.87 2331.95 186.26 1215.8 183.48 173.44 1462.15 2327.51 1464.14 2328.51 1422.67" id="Layer_3_1" data-parent-layer="Layer_3" />
    <path class="cls-10 interactive-machine" d="M2325.04,1242.13v9.72s53.47-5.56,109.71,38.89c0,0,43.23,45.46,43.23,68.86,0,0,6.42,14.34,7.55,48.31l-144.92-.75-14.34-.38v11.32" id="Layer_3_2" data-parent-layer="Layer_3" />
    <path class="cls-4 interactive-machine" d="M1079.55,510.17s1.98,6.74,8.92,8.32" id="Layer_3_3" data-parent-layer="Layer_3" />
  </g>
  <g id="Layer_4" data-name="Layer 4">
    <g id="Layer_4_1" class="interactive-machine" data-parent-layer="Layer_4">
      <path class="cls-6 interactive-machine" d="M1073.51,570.79l187.72,157.35s5.67,4.63,11.25-3.67c0,0,91.81-116.59,92.47-117.25s3.52-6.32-.27-10.4l-184.29-156.33-106.88,130.3Z" id="Layer_4_1_1" data-parent-layer="Layer_4_1" />
      <polyline class="cls-13 interactive-machine" points="1097.24 548.71 1275.24 700.05 1284.26 707.72" id="Layer_4_1_2" data-parent-layer="Layer_4_1" />
      <line class="cls-13 interactive-machine" x1="1256.88" y1="723.31" x2="1274.57" y2="700.66" id="Layer_4_1_3" data-parent-layer="Layer_4_1" />
      <line class="cls-13 interactive-machine" x1="1163.38" y1="465.27" x2="1349.82" y2="624.24" id="Layer_4_1_4" data-parent-layer="Layer_4_1" />
      <line class="cls-13 interactive-machine" x1="1359.72" y1="593.46" x2="1341.78" y2="616.05" id="Layer_4_1_5" data-parent-layer="Layer_4_1" />
      <path class="cls-5 interactive-machine" d="M1055.81,494.29s-3.87-4.66,1.28-11.53c0,0,31.33-47,40.88-50.43,0,0,2.79-1.07,6.55-.11,0,0,4.29-8.69,11.8-6.97,0,0,3.43.75,7.73,4.83s7.22,6.41,7.22,6.41c0,0,10.26-7.03,18.81-5.51,0,0,10.07,2.09,11.59,13.49,0,0,2.28,6.84-10.83,21.28l-63.28,80.96s-15.96,14.63-24.52-5.32l2.08-19.56-11.78-10.38s-5.52-7.21,1.03-14.72l1.45-2.43Z" id="Layer_4_1_6" data-parent-layer="Layer_4_1" />
      <line class="cls-13 interactive-machine" x1="1345.65" y1="621.81" x2="1280.64" y2="704.04" id="Layer_4_1_7" data-parent-layer="Layer_4_1" />
      <path class="cls-8 interactive-machine" d="M1019.98,526.99s-10.5-10,1-25.37l86.63-109.88s10.2-10.44,20.15-1.46l127.8,108.95s3.49,12.74-10.65,12.04l-65.82-55.28s-6.57-3.31-13.48,4.87l-73.84,93.65s-3.69,8.84,1.42,12.97l64.81,55.92s2.5,13.91-10.02,12.66l-115.18-98.15-12.83-10.93Z" id="Layer_4_1_8" data-parent-layer="Layer_4_1" />
      <path class="cls-13 interactive-machine" d="M1034.11,538.09s6.02,1.54,13.05-6.64l18.14-22.85s.77-1.16,2.47.15l8.42,7.18s1.12.98-.3,2.82l-19.41,24.34s-6.16,5.69-10.51,5.11l-11.86-10.11Z" id="Layer_4_1_9" data-parent-layer="Layer_4_1" />
      <path class="cls-13 interactive-machine" d="M1140.81,402.39s2.38,5.5-3.34,13.01l-18.43,23.71s-1.64,1.71-.07,3.49l8.77,7.58s1.19,1.19,2.68-.82c0,0,18.13-23.49,20.07-26.24,0,0,3.64-4.53,2.97-9.81l-12.63-10.93Z" id="Layer_4_1_10" data-parent-layer="Layer_4_1" />
      <path class="cls-13 interactive-machine" d="M1050.31,465.37s4.09,4.4,16.42-10.88c0,0,12.87-15.49,9.93-21.6" id="Layer_4_1_11" data-parent-layer="Layer_4_1" />
      <path class="cls-8 interactive-machine" d="M1059.69,487.71s34.49-48.61,40.58-51.17c0,0,3.88-2.21,7.68,1.06l15.88,16.76s2.38,3.62-.88,8.65c0,0-30.85,42.96-37.96,47.43,0,0-4.03,2.9-8.25-1.01,0,0-15.36-11.28-17.46-13.87,0,0-2.4-3.72.43-7.86Z" id="Layer_4_1_12" data-parent-layer="Layer_4_1" />
      <path class="cls-13 interactive-machine" d="M1073.54,528.81s-8.52,5.8-5.98,12.51c0,0,2.21,8.01,11.05,5.25,0,0,5.62-4.24,6.72-8.66l-11.79-9.1Z" id="Layer_4_1_13" data-parent-layer="Layer_4_1" />
      <line class="cls-13 interactive-machine" x1="1149.64" y1="454.84" x2="1084.79" y2="537.04" id="Layer_4_1_14" data-parent-layer="Layer_4_1" />
      <path class="cls-13 interactive-machine" d="M1139.2,443.92l11.12,10.67s8.89-5.56,5.89-13.56c0,0-2.89-7-9.9-4.23,0,0-2.78.11-7.12,7.12Z" id="Layer_4_1_15" data-parent-layer="Layer_4_1" />
    </g>
    <g id="Layer_4_2" class="interactive-machine" data-parent-layer="Layer_4">
      <path class="cls-6 interactive-machine" d="M914.15,771.24l187.72,157.35s5.67,4.63,11.25-3.67c0,0,91.81-116.59,92.47-117.25s3.52-6.32-.27-10.4l-184.29-156.33-106.88,130.3Z" id="Layer_4_2_1" data-parent-layer="Layer_4_2" />
      <polyline class="cls-13 interactive-machine" points="937.89 749.15 1115.89 900.5 1124.9 908.16" id="Layer_4_2_2" data-parent-layer="Layer_4_2" />
      <line class="cls-13 interactive-machine" x1="1097.53" y1="923.75" x2="1115.22" y2="901.1" id="Layer_4_2_3" data-parent-layer="Layer_4_2" />
      <line class="cls-13 interactive-machine" x1="1004.02" y1="665.71" x2="1190.46" y2="824.68" id="Layer_4_2_4" data-parent-layer="Layer_4_2" />
      <line class="cls-13 interactive-machine" x1="1200.37" y1="793.9" x2="1182.43" y2="816.49" id="Layer_4_2_5" data-parent-layer="Layer_4_2" />
      <path class="cls-5 interactive-machine" d="M896.45,694.73s-3.87-4.66,1.28-11.53c0,0,31.33-47,40.88-50.43,0,0,2.79-1.07,6.55-.11,0,0,4.29-8.69,11.8-6.97,0,0,3.43.75,7.73,4.83s7.22,6.41,7.22,6.41c0,0,10.26-7.03,18.81-5.51,0,0,10.07,2.09,11.59,13.49,0,0,2.28,6.84-10.83,21.28l-63.28,80.96s-15.96,14.63-24.52-5.32l2.08-19.56-11.78-10.38s-5.52-7.21,1.03-14.72l1.45-2.43Z" id="Layer_4_2_6" data-parent-layer="Layer_4_2" />
      <line class="cls-13 interactive-machine" x1="1186.3" y1="822.25" x2="1121.29" y2="904.48" id="Layer_4_2_7" data-parent-layer="Layer_4_2" />
      <path class="cls-8 interactive-machine" d="M860.63,727.43s-10.5-10,1-25.37l86.63-109.88s10.2-10.44,20.15-1.46l127.8,108.95s3.49,12.74-10.65,12.04l-65.82-55.28s-6.57-3.31-13.48,4.87l-73.84,93.65s-3.69,8.84,1.42,12.97l64.81,55.92s2.5,13.91-10.02,12.66l-115.18-98.15-12.83-10.93Z" id="Layer_4_2_8" data-parent-layer="Layer_4_2" />
      <path class="cls-13 interactive-machine" d="M874.76,738.53s6.02,1.54,13.05-6.64l18.14-22.85s.77-1.16,2.47.15l8.42,7.18s1.12.98-.3,2.82l-19.41,24.34s-6.16,5.69-10.51,5.11l-11.86-10.11Z" id="Layer_4_2_9" data-parent-layer="Layer_4_2" />
      <path class="cls-13 interactive-machine" d="M981.46,602.83s2.38,5.5-3.34,13.01l-18.43,23.71s-1.64,1.71-.07,3.49l8.77,7.58s1.19,1.19,2.68-.82c0,0,18.13-23.49,20.07-26.24,0,0,3.64-4.53,2.97-9.81l-12.63-10.93Z" id="Layer_4_2_10" data-parent-layer="Layer_4_2" />
      <path class="cls-13 interactive-machine" d="M890.96,665.81s4.09,4.4,16.42-10.88c0,0,12.87-15.49,9.93-21.6" id="Layer_4_2_11" data-parent-layer="Layer_4_2" />
      <path class="cls-8 interactive-machine" d="M900.34,688.16s34.49-48.61,40.58-51.17c0,0,3.88-2.21,7.68,1.06l15.88,16.76s2.38,3.62-.88,8.65c0,0-30.85,42.96-37.96,47.43,0,0-4.03,2.9-8.25-1.01,0,0-15.36-11.28-17.46-13.87,0,0-2.4-3.72.43-7.86Z" id="Layer_4_2_12" data-parent-layer="Layer_4_2" />
      <path class="cls-13 interactive-machine" d="M914.19,729.26s-8.52,5.8-5.98,12.51c0,0,2.21,8.01,11.05,5.25,0,0,5.62-4.24,6.72-8.66l-11.79-9.1Z" id="Layer_4_2_13" data-parent-layer="Layer_4_2" />
      <line class="cls-13 interactive-machine" x1="990.29" y1="655.28" x2="925.44" y2="737.48" id="Layer_4_2_14" data-parent-layer="Layer_4_2" />
      <path class="cls-13 interactive-machine" d="M979.84,644.37l11.12,10.67s8.89-5.56,5.89-13.56c0,0-2.89-7-9.9-4.23,0,0-2.78.11-7.12,7.12Z" id="Layer_4_2_15" data-parent-layer="Layer_4_2" />
    </g>
    <g id="Layer_4_3" class="interactive-machine" data-parent-layer="Layer_4">
      <path class="cls-6 interactive-machine" d="M749.35,965.79l187.72,157.35s5.67,4.63,11.25-3.67c0,0,91.81-116.59,92.47-117.25s3.52-6.32-.27-10.4l-184.29-156.33-106.88,130.3Z" id="Layer_4_3_1" data-parent-layer="Layer_4_3" />
      <polyline class="cls-13 interactive-machine" points="773.09 943.71 951.09 1095.05 960.11 1102.72" id="Layer_4_3_2" data-parent-layer="Layer_4_3" />
      <line class="cls-13 interactive-machine" x1="932.73" y1="1118.31" x2="950.42" y2="1095.66" id="Layer_4_3_3" data-parent-layer="Layer_4_3" />
      <line class="cls-13 interactive-machine" x1="839.22" y1="860.26" x2="1025.66" y2="1019.23" id="Layer_4_3_4" data-parent-layer="Layer_4_3" />
      <line class="cls-13 interactive-machine" x1="1035.57" y1="988.46" x2="1017.63" y2="1011.05" id="Layer_4_3_5" data-parent-layer="Layer_4_3" />
      <path class="cls-5 interactive-machine" d="M731.65,889.28s-3.87-4.66,1.28-11.53c0,0,31.33-47,40.88-50.43,0,0,2.79-1.07,6.55-.11,0,0,4.29-8.69,11.8-6.97,0,0,3.43.75,7.73,4.83s7.22,6.41,7.22,6.41c0,0,10.26-7.03,18.81-5.51,0,0,10.07,2.09,11.59,13.49,0,0,2.28,6.84-10.83,21.28l-63.28,80.96s-15.96,14.63-24.52-5.32l2.08-19.56-11.78-10.38s-5.52-7.21,1.03-14.72l1.45-2.43Z" id="Layer_4_3_6" data-parent-layer="Layer_4_3" />
      <line class="cls-13 interactive-machine" x1="1021.5" y1="1016.81" x2="956.49" y2="1099.04" id="Layer_4_3_7" data-parent-layer="Layer_4_3" />
      <path class="cls-8 interactive-machine" d="M695.83,921.98s-10.5-10,1-25.37l86.63-109.88s10.2-10.44,20.15-1.46l127.8,108.95s3.49,12.74-10.65,12.04l-65.82-55.28s-6.57-3.31-13.48,4.87l-73.84,93.65s-3.69,8.84,1.42,12.97l64.81,55.92s2.5,13.91-10.02,12.66l-115.18-98.15-12.83-10.93Z" id="Layer_4_3_8" data-parent-layer="Layer_4_3" />
      <path class="cls-13 interactive-machine" d="M709.96,933.09s6.02,1.54,13.05-6.64l18.14-22.85s.77-1.16,2.47.15l8.42,7.18s1.12.98-.3,2.82l-19.41,24.34s-6.16,5.69-10.51,5.11l-11.86-10.11Z" id="Layer_4_3_9" data-parent-layer="Layer_4_3" />
      <path class="cls-13 interactive-machine" d="M816.66,797.38s2.38,5.5-3.34,13.01l-18.43,23.71s-1.64,1.71-.07,3.49l8.77,7.58s1.19,1.19,2.68-.82c0,0,18.13-23.49,20.07-26.24,0,0,3.64-4.53,2.97-9.81l-12.63-10.93Z" id="Layer_4_3_10" data-parent-layer="Layer_4_3" />
      <path class="cls-13 interactive-machine" d="M726.16,860.36s4.09,4.4,16.42-10.88c0,0,12.87-15.49,9.93-21.6" id="Layer_4_3_11" data-parent-layer="Layer_4_3" />
      <path class="cls-8 interactive-machine" d="M735.54,882.71s34.49-48.61,40.58-51.17c0,0,3.88-2.21,7.68,1.06l15.88,16.76s2.38,3.62-.88,8.65c0,0-30.85,42.96-37.96,47.43,0,0-4.03,2.9-8.25-1.01,0,0-15.36-11.28-17.46-13.87,0,0-2.4-3.72.43-7.86Z" id="Layer_4_3_12" data-parent-layer="Layer_4_3" />
      <path class="cls-13 interactive-machine" d="M749.39,923.81s-8.52,5.8-5.98,12.51c0,0,2.21,8.01,11.05,5.25,0,0,5.62-4.24,6.72-8.66l-11.79-9.1Z" id="Layer_4_3_13" data-parent-layer="Layer_4_3" />
      <line class="cls-13 interactive-machine" x1="825.49" y1="849.83" x2="760.64" y2="932.04" id="Layer_4_3_14" data-parent-layer="Layer_4_3" />
      <path class="cls-13 interactive-machine" d="M815.05,838.92l11.12,10.67s8.89-5.56,5.89-13.56c0,0-2.89-7-9.9-4.23,0,0-2.78.11-7.12,7.12Z" id="Layer_4_3_15" data-parent-layer="Layer_4_3" />
    </g>
    <g id="Layer_4_4" class="interactive-machine" data-parent-layer="Layer_4">
      <path class="cls-6 interactive-machine" d="M579.98,1160.35l187.72,157.35s5.67,4.63,11.25-3.67c0,0,91.81-116.59,92.47-117.25s3.52-6.32-.27-10.4l-184.29-156.33-106.88,130.3Z" id="Layer_4_4_1" data-parent-layer="Layer_4_4" />
      <polyline class="cls-13 interactive-machine" points="603.71 1138.26 781.71 1289.61 790.73 1297.27" id="Layer_4_4_2" data-parent-layer="Layer_4_4" />
      <line class="cls-13 interactive-machine" x1="763.35" y1="1312.86" x2="781.04" y2="1290.21" id="Layer_4_4_3" data-parent-layer="Layer_4_4" />
      <line class="cls-13 interactive-machine" x1="669.85" y1="1054.82" x2="856.28" y2="1213.79" id="Layer_4_4_4" data-parent-layer="Layer_4_4" />
      <line class="cls-13 interactive-machine" x1="866.19" y1="1183.01" x2="848.25" y2="1205.6" id="Layer_4_4_5" data-parent-layer="Layer_4_4" />
      <path class="cls-5 interactive-machine" d="M562.28,1083.84s-3.87-4.66,1.28-11.53c0,0,31.33-47,40.88-50.43,0,0,2.79-1.07,6.55-.11,0,0,4.29-8.69,11.8-6.97,0,0,3.43.75,7.73,4.83s7.22,6.41,7.22,6.41c0,0,10.26-7.03,18.81-5.51,0,0,10.07,2.09,11.59,13.49,0,0,2.28,6.84-10.83,21.28l-63.28,80.96s-15.96,14.63-24.52-5.32l2.08-19.56-11.78-10.38s-5.52-7.21,1.03-14.72l1.45-2.43Z" id="Layer_4_4_6" data-parent-layer="Layer_4_4" />
      <line class="cls-13 interactive-machine" x1="852.12" y1="1211.36" x2="787.11" y2="1293.59" id="Layer_4_4_7" data-parent-layer="Layer_4_4" />
      <path class="cls-8 interactive-machine" d="M526.45,1116.54s-10.5-10,1-25.37l86.63-109.88s10.2-10.44,20.15-1.46l127.8,108.95s3.49,12.74-10.65,12.04l-65.82-55.28s-6.57-3.31-13.48,4.87l-73.84,93.65s-3.69,8.84,1.42,12.97l64.81,55.92s2.5,13.91-10.02,12.66l-115.18-98.15-12.83-10.93Z" id="Layer_4_4_8" data-parent-layer="Layer_4_4" />
      <path class="cls-13 interactive-machine" d="M540.58,1127.64s6.02,1.54,13.05-6.64l18.14-22.85s.77-1.16,2.47.15l8.42,7.18s1.12.98-.3,2.82l-19.41,24.34s-6.16,5.69-10.51,5.11l-11.86-10.11Z" id="Layer_4_4_9" data-parent-layer="Layer_4_4" />
      <path class="cls-13 interactive-machine" d="M647.28,991.94s2.38,5.5-3.34,13.01l-18.43,23.71s-1.64,1.71-.07,3.49l8.77,7.58s1.19,1.19,2.68-.82c0,0,18.13-23.49,20.07-26.24,0,0,3.64-4.53,2.97-9.81l-12.63-10.93Z" id="Layer_4_4_10" data-parent-layer="Layer_4_4" />
      <path class="cls-13 interactive-machine" d="M556.78,1054.92s4.09,4.4,16.42-10.88c0,0,12.87-15.49,9.93-21.6" id="Layer_4_4_11" data-parent-layer="Layer_4_4" />
      <path class="cls-8 interactive-machine" d="M566.16,1077.27s34.49-48.61,40.58-51.17c0,0,3.88-2.21,7.68,1.06l15.88,16.76s2.38,3.62-.88,8.65c0,0-30.85,42.96-37.96,47.43,0,0-4.03,2.9-8.25-1.01,0,0-15.36-11.28-17.46-13.87,0,0-2.4-3.72.43-7.86Z" id="Layer_4_4_12" data-parent-layer="Layer_4_4" />
      <path class="cls-13 interactive-machine" d="M580.01,1118.37s-8.52,5.8-5.98,12.51c0,0,2.21,8.01,11.05,5.25,0,0,5.62-4.24,6.72-8.66l-11.79-9.1Z" id="Layer_4_4_13" data-parent-layer="Layer_4_4" />
      <line class="cls-13 interactive-machine" x1="656.11" y1="1044.39" x2="591.26" y2="1126.59" id="Layer_4_4_14" data-parent-layer="Layer_4_4" />
      <path class="cls-13 interactive-machine" d="M645.67,1033.48l11.12,10.67s8.89-5.56,5.89-13.56c0,0-2.89-7-9.9-4.23,0,0-2.78.11-7.12,7.12Z" id="Layer_4_4_15" data-parent-layer="Layer_4_4" />
    </g>
  </g>
  <g id="Layer_5" data-name="Layer 5">
    <g id="Layer_5_1" class="interactive-machine" data-parent-layer="Layer_5">
      <path class="cls-10 interactive-machine" d="M1092.08,1389.33s14.26-1.52,16.73.38" id="Layer_5_1_1" data-parent-layer="Layer_5_1" />
      <path class="cls-6 interactive-machine" d="M1291.14,1391.96c-.17-4.74-3.74-4.94-3.74-4.94l-32.91.11.35-30.78c.08-2.53-.75-3.36-.75-3.36-2.37-3.36-6.53.12-6.53.12-3.24-3.92-7.67.47-7.67.47-4.51-4.71-7.18,1.11-7.18,1.11l-.25,29.44h-3.94c-3.09-.07-3.62,2.04-3.62,2.04l-4.58.04-.37-6.53c-3.91-10.77-8.98.41-8.98.41l-.36,8.52-2.06.16-77.09.31c.15-.36.32-.79.52-1.32,2.03-5.36,4.62-45.11,4.62-45.11.55-6.1-3.25-47.89-3.25-47.89-3.97-6.24-15.24-5.59-15.24-5.59v-6.88c4.53,1.13,11.03-.54,11.03-.54,10.91-3.4,13.86-9.92,13.86-9.92,7.48-13.4-6.54-19.42-6.54-19.42-6.65-1.25-8.52-3.95-8.52-3.95-1.14-.73-5.82-11.84-5.82-11.84-1.04-3.53-4.35-5.82-4.35-5.82l.03-10.75c-.03-6.89-1.51-7.99-1.51-7.99-6.04-6.48-13.08-.23-13.08-.23-2.7,1-1.14,19.26-1.14,19.26-3.61.47-7.22,11.29-7.22,11.29-2.21,7.8-6.4,8.38-6.4,8.38-21.07,4.89-11.53,21.07-11.53,21.07,6.99,13.62,24.57,10.59,24.57,10.59l.12,6.38-.99.05c-6.58.52-13.16,4.39-13.16,4.39-3.48,2.97-4.39,44.26-4.39,44.26-1.68,3.48,4.52,50.97,4.52,50.97l-78.67.23v-9.43c-4.57-8.7-8.92-.22-8.92-.22l-.22,7.03-5.51.15c-.15-2.18-1.9-2.17-1.9-2.17l-5.57-.15-.07-30.74c-3.19-3.34-7.65.07-7.65.07-3.79-3.42-7.13.22-7.13.22-3.27-4.01-7.05.3-7.05.3l-.07,33.48-33.56-.15c-6.98,6.16-.22,11.58-.22,11.58l33.71.19.05,32.26c2.08,6.25,6.89,1.92,6.89,1.92,3.1,4.22,7.96-.27,7.96-.27,3.2,4.43,7.12-.34,7.12-.34l-.06-30.32,3.95.1c2.86,1.97,4.05-1.09,4.05-1.09l2.37-.2.06,4.78-1.46,25.81c1.24,8.31,6.61,7.94,6.61,7.94,7.76,1.15,8.68-6.8,8.68-6.8.62-5.96,4.52-5.76,4.52-5.76l17.51-.51c4.05,1.88,11.94,7.53,11.94,7.53l130.87-.25c8.28-6.55,11.1-6.85,11.1-6.85h17.46c4.55,1.1,5.51,9.73,5.51,9.73,10.76,8.25,14.22-2.75,14.22-2.75l-1.67-32.5,2.66.29c2.2,1.69,7.22.31,7.22.31l.26,25.87c-.27,3.31.4,4.51.4,4.51,3.31,5.14,7.51.13,7.51.13,4.38,4.65,7.11-.22,7.11-.22,5.05,5.68,6.85-1.56,6.85-1.56l.38-31.8,33.51-.09c3.63-1.39,2.79-6.81,2.79-6.81ZM1190.51,1408.81c-3.55,3.83-8.38,4.4-8.38,4.4l-47.86.28v1.99c-.14,2.98-1.56,3.12-1.56,3.12l-40.76.28c-6.39.57-5.96-1.42-5.96-1.42v-3.98l-44.88.14c-6.11.28-8.8-2.41-8.8-2.41l-16.19-13.63,188.45-.85-14.06,12.07Z" id="Layer_5_1_2" data-parent-layer="Layer_5_1" />
      <polygon class="cls-12 interactive-machine" points="1009.39 1396.42 1211.36 1396.7 1210.83 1388.65 1009.16 1388.74 1009.39 1396.42" id="Layer_5_1_3" data-parent-layer="Layer_5_1" />
      <line class="cls-2 interactive-machine" x1="972.09" y1="1354.01" x2="972.02" y2="1432.63" id="Layer_5_1_4" data-parent-layer="Layer_5_1" />
      <line class="cls-2 interactive-machine" x1="979.29" y1="1353.69" x2="979.54" y2="1432.36" id="Layer_5_1_5" data-parent-layer="Layer_5_1" />
      <line class="cls-2 interactive-machine" x1="965.04" y1="1387.07" x2="964.99" y2="1398.92" id="Layer_5_1_6" data-parent-layer="Layer_5_1" />
      <line class="cls-2 interactive-machine" x1="987.04" y1="1383.95" x2="986.95" y2="1402.17" id="Layer_5_1_7" data-parent-layer="Layer_5_1" />
      <path class="cls-2 interactive-machine" d="M994.51,1386.27s1.81,8.18.47,14.8" id="Layer_5_1_8" data-parent-layer="Layer_5_1" />
      <path class="cls-2 interactive-machine" d="M997.42,1404.32s2.4.96,2.55-5.81l.27-19.42s3.98-8.54,8.92.22l-.1,24.54s-.45,10.07,7.66,9.17" id="Layer_5_1_9" data-parent-layer="Layer_5_1" />
      <path class="cls-15 interactive-machine" d="M1093.52,1434.24l-.11,6.67s.16,1.91,3.61,1.75l27.55-.22s1.86,0,2.41-2.3l-.16-5.96" id="Layer_5_1_10" data-parent-layer="Layer_5_1" />
      <path class="cls-15 interactive-machine" d="M1005.65,1421.07s5.65,6.01,7.07,6.08l.69.79" id="Layer_5_1_11" data-parent-layer="Layer_5_1" />
      <path class="cls-6 interactive-machine" d="M1214.82,1420.98s-2.78,1.8-3.23,3.17c0,0-3.04,2.88-4.51,3.3l-.62.69" id="Layer_5_1_12" data-parent-layer="Layer_5_1" />
      <path class="cls-2 interactive-machine" d="M1088.34,1389.05s1.24,3.38,6.34,3.03l33.71-.14s2.14-1.03,3.31-3.17" id="Layer_5_1_13" data-parent-layer="Layer_5_1" />
      <path class="cls-2 interactive-machine" d="M1090.15,1392.71s38.66-.65,39.66-.35l.91,26.64-41.6.64,1.03-26.93Z" id="Layer_5_1_14" data-parent-layer="Layer_5_1" />
      <line class="cls-12 interactive-machine" x1="1086.18" y1="1396.69" x2="1086.17" y2="1413.48" id="Layer_5_1_15" data-parent-layer="Layer_5_1" />
      <line class="cls-12 interactive-machine" x1="1133.86" y1="1396.71" x2="1134.48" y2="1413.67" id="Layer_5_1_16" data-parent-layer="Layer_5_1" />
      <path class="cls-2 interactive-machine" d="M1211.36,1396.7s.76,11.93-1.84,14.42c0,0-.98,2.17-5.86,1.95" id="Layer_5_1_17" data-parent-layer="Layer_5_1" />
      <path class="cls-2 interactive-machine" d="M1220.54,1386.25s-1.32,16.01,1.98,19.25" id="Layer_5_1_18" data-parent-layer="Layer_5_1" />
      <path class="cls-2 interactive-machine" d="M1225.12,1386.21s-.33,12.95.36,15.47" id="Layer_5_1_19" data-parent-layer="Layer_5_1" />
      <line class="cls-2 interactive-machine" x1="1232.7" y1="1383.99" x2="1232.54" y2="1401.95" id="Layer_5_1_20" data-parent-layer="Layer_5_1" />
      <line class="cls-2 interactive-machine" x1="1240.09" y1="1354.07" x2="1240.72" y2="1432.48" id="Layer_5_1_21" data-parent-layer="Layer_5_1" />
      <line class="cls-2 interactive-machine" x1="1247.75" y1="1353.54" x2="1247.85" y2="1431.76" id="Layer_5_1_22" data-parent-layer="Layer_5_1" />
      <line class="cls-2 interactive-machine" x1="1254.73" y1="1387.4" x2="1255.05" y2="1398.9" id="Layer_5_1_23" data-parent-layer="Layer_5_1" />
    </g>
    <g id="Layer_5_2" class="interactive-machine" data-parent-layer="Layer_5">
      <path class="cls-10 interactive-machine" d="M1498.82,1391.39s14.26-1.52,16.73.38" id="Layer_5_2_1" data-parent-layer="Layer_5_2" />
      <path class="cls-6 interactive-machine" d="M1697.88,1394.03c-.17-4.74-3.74-4.94-3.74-4.94l-32.91.11.35-30.78c.08-2.53-.75-3.36-.75-3.36-2.37-3.36-6.53.12-6.53.12-3.24-3.92-7.67.47-7.67.47-4.51-4.71-7.18,1.11-7.18,1.11l-.25,29.44h-3.94c-3.09-.07-3.62,2.04-3.62,2.04l-4.58.04-.37-6.53c-3.91-10.77-8.98.41-8.98.41l-.36,8.52-2.06.16-77.09.31c.15-.36.32-.79.52-1.32,2.03-5.36,4.62-45.11,4.62-45.11.55-6.1-3.25-47.89-3.25-47.89-3.97-6.24-15.24-5.59-15.24-5.59v-6.88c4.53,1.13,11.03-.54,11.03-.54,10.91-3.4,13.86-9.92,13.86-9.92,7.48-13.4-6.54-19.42-6.54-19.42-6.65-1.25-8.52-3.95-8.52-3.95-1.14-.73-5.82-11.84-5.82-11.84-1.04-3.53-4.35-5.82-4.35-5.82l.03-10.75c-.03-6.89-1.51-7.99-1.51-7.99-6.04-6.48-13.08-.23-13.08-.23-2.7,1-1.14,19.26-1.14,19.26-3.61.47-7.22,11.29-7.22,11.29-2.21,7.8-6.4,8.38-6.4,8.38-21.07,4.89-11.53,21.07-11.53,21.07,6.99,13.62,24.57,10.59,24.57,10.59l.12,6.38-.99.05c-6.58.52-13.16,4.39-13.16,4.39-3.48,2.97-4.39,44.26-4.39,44.26-1.68,3.48,4.52,50.97,4.52,50.97l-78.67.23v-9.43c-4.57-8.7-8.92-.22-8.92-.22l-.22,7.03-5.51.15c-.15-2.18-1.9-2.17-1.9-2.17l-5.57-.15-.07-30.74c-3.19-3.34-7.65.07-7.65.07-3.79-3.42-7.13.22-7.13.22-3.27-4.01-7.05.3-7.05.3l-.07,33.48-33.56-.15c-6.98,6.16-.22,11.58-.22,11.58l33.71.19.05,32.26c2.08,6.25,6.89,1.92,6.89,1.92,3.1,4.22,7.96-.27,7.96-.27,3.2,4.43,7.12-.34,7.12-.34l-.06-30.32,3.95.1c2.86,1.97,4.05-1.09,4.05-1.09l2.37-.2.06,4.78-1.46,25.81c1.24,8.31,6.61,7.94,6.61,7.94,7.76,1.15,8.68-6.8,8.68-6.8.62-5.96,4.52-5.76,4.52-5.76l17.51-.51c4.05,1.88,11.94,7.53,11.94,7.53l130.87-.25c8.28-6.55,11.1-6.85,11.1-6.85h17.46c4.55,1.1,5.51,9.73,5.51,9.73,10.76,8.25,14.22-2.75,14.22-2.75l-1.67-32.5,2.66.29c2.2,1.69,7.22.31,7.22.31l.26,25.87c-.27,3.31.4,4.51.4,4.51,3.31,5.14,7.51.13,7.51.13,4.38,4.65,7.11-.22,7.11-.22,5.05,5.68,6.85-1.56,6.85-1.56l.38-31.8,33.51-.09c3.63-1.39,2.79-6.81,2.79-6.81ZM1597.25,1410.87c-3.55,3.83-8.38,4.4-8.38,4.4l-47.86.28v1.99c-.14,2.98-1.56,3.12-1.56,3.12l-40.76.28c-6.39.57-5.96-1.42-5.96-1.42v-3.98l-44.88.14c-6.11.28-8.8-2.41-8.8-2.41l-16.19-13.63,188.45-.85-14.06,12.07Z" id="Layer_5_2_2" data-parent-layer="Layer_5_2" />
      <polygon class="cls-12 interactive-machine" points="1416.13 1398.49 1618.1 1398.76 1617.58 1390.72 1415.9 1390.8 1416.13 1398.49" id="Layer_5_2_3" data-parent-layer="Layer_5_2" />
      <line class="cls-2 interactive-machine" x1="1378.83" y1="1356.08" x2="1378.77" y2="1434.69" id="Layer_5_2_4" data-parent-layer="Layer_5_2" />
      <line class="cls-2 interactive-machine" x1="1386.03" y1="1355.76" x2="1386.29" y2="1434.43" id="Layer_5_2_5" data-parent-layer="Layer_5_2" />
      <line class="cls-2 interactive-machine" x1="1371.79" y1="1389.14" x2="1371.73" y2="1400.98" id="Layer_5_2_6" data-parent-layer="Layer_5_2" />
      <line class="cls-2 interactive-machine" x1="1393.78" y1="1386.02" x2="1393.69" y2="1404.23" id="Layer_5_2_7" data-parent-layer="Layer_5_2" />
      <path class="cls-2 interactive-machine" d="M1401.25,1388.34s1.81,8.18.47,14.8" id="Layer_5_2_8" data-parent-layer="Layer_5_2" />
      <path class="cls-2 interactive-machine" d="M1404.16,1406.39s2.4.96,2.55-5.81l.27-19.42s3.98-8.54,8.92.22l-.1,24.54s-.45,10.07,7.66,9.17" id="Layer_5_2_9" data-parent-layer="Layer_5_2" />
      <path class="cls-15 interactive-machine" d="M1500.26,1436.3l-.11,6.67s.16,1.91,3.61,1.75l27.55-.22s1.86,0,2.41-2.3l-.16-5.96" id="Layer_5_2_10" data-parent-layer="Layer_5_2" />
      <path class="cls-15 interactive-machine" d="M1412.39,1423.13s5.65,6.01,7.07,6.08l.69.79" id="Layer_5_2_11" data-parent-layer="Layer_5_2" />
      <path class="cls-6 interactive-machine" d="M1621.57,1423.04s-2.78,1.8-3.23,3.17c0,0-3.04,2.88-4.51,3.3l-.62.69" id="Layer_5_2_12" data-parent-layer="Layer_5_2" />
      <path class="cls-2 interactive-machine" d="M1495.08,1391.12s1.24,3.38,6.34,3.03l33.71-.14s2.14-1.03,3.31-3.17" id="Layer_5_2_13" data-parent-layer="Layer_5_2" />
      <path class="cls-2 interactive-machine" d="M1496.89,1394.77s38.66-.65,39.66-.35l.91,26.64-41.6.64,1.03-26.93Z" id="Layer_5_2_14" data-parent-layer="Layer_5_2" />
      <line class="cls-12 interactive-machine" x1="1492.93" y1="1398.76" x2="1492.91" y2="1415.54" id="Layer_5_2_15" data-parent-layer="Layer_5_2" />
      <line class="cls-12 interactive-machine" x1="1540.6" y1="1398.77" x2="1541.22" y2="1415.74" id="Layer_5_2_16" data-parent-layer="Layer_5_2" />
      <path class="cls-2 interactive-machine" d="M1618.1,1398.76s.76,11.93-1.84,14.42c0,0-.98,2.17-5.86,1.95" id="Layer_5_2_17" data-parent-layer="Layer_5_2" />
      <path class="cls-2 interactive-machine" d="M1627.28,1388.32s-1.32,16.01,1.98,19.25" id="Layer_5_2_18" data-parent-layer="Layer_5_2" />
      <path class="cls-2 interactive-machine" d="M1631.86,1388.27s-.33,12.95.36,15.47" id="Layer_5_2_19" data-parent-layer="Layer_5_2" />
      <line class="cls-2 interactive-machine" x1="1639.44" y1="1386.06" x2="1639.28" y2="1404.02" id="Layer_5_2_20" data-parent-layer="Layer_5_2" />
      <line class="cls-2 interactive-machine" x1="1646.83" y1="1356.13" x2="1647.46" y2="1434.54" id="Layer_5_2_21" data-parent-layer="Layer_5_2" />
      <line class="cls-2 interactive-machine" x1="1654.5" y1="1355.6" x2="1654.6" y2="1433.82" id="Layer_5_2_22" data-parent-layer="Layer_5_2" />
      <line class="cls-2 interactive-machine" x1="1661.47" y1="1389.46" x2="1661.8" y2="1400.96" id="Layer_5_2_23" data-parent-layer="Layer_5_2" />
    </g>
  </g>
  <g id="Layer_6" data-name="Layer 6">
    <g id="Layer_6_1" class="interactive-machine" data-parent-layer="Layer_6">
      <path class="cls-3 interactive-machine" d="M1934.92,689.41s6.46-4.42,12.75-.17l.45,110.58s-7.91,4.23-13.38-.33l.19-110.08Z" id="Layer_6_1_1" data-parent-layer="Layer_6_1" />
      <path class="cls-3 interactive-machine" d="M1916.4,718.83l.13,49.11,184.45,1.7s55.58-6.76,58.73-6.44l.16-39.15s-55.82-6.45-58.33-4.87l-185.13-.34Z" id="Layer_6_1_2" data-parent-layer="Layer_6_1" />
      <path class="cls-3 interactive-machine" d="M2159.48,726.58s5.66-.61,5.92,3.57l.48,29.64s-1.72,1.94-6.15.34" id="Layer_6_1_3" data-parent-layer="Layer_6_1" />
      <path class="cls-3 interactive-machine" d="M2165.16,728.72s4.95-.55,5.18,3.21l.42,26.64s-1.5,1.75-5.38.3" id="Layer_6_1_4" data-parent-layer="Layer_6_1" />
      <path class="cls-3 interactive-machine" d="M2170.26,731.14s4.59-.48,4.8,2.82l.39,23.4s-1.39,1.54-4.98.26" id="Layer_6_1_5" data-parent-layer="Layer_6_1" />
      <line class="cls-14 interactive-machine" x1="2099.32" y1="720.16" x2="2099.32" y2="768.25" id="Layer_6_1_6" data-parent-layer="Layer_6_1" />
      <path class="cls-3 interactive-machine" d="M1934.17,710.95c-15.33,1.21-14.77-7.95-14.77-7.95,0-10.44,14.84-6.81,14.84-6.81l-.07,14.77Z" id="Layer_6_1_7" data-parent-layer="Layer_6_1" />
      <line class="cls-3 interactive-machine" x1="1927.78" y1="696.36" x2="1927.35" y2="709.9" id="Layer_6_1_8" data-parent-layer="Layer_6_1" />
      <path class="cls-3 interactive-machine" d="M1933.52,794.35c-15.33,1.21-14.77-7.95-14.77-7.95,0-10.44,14.84-6.81,14.84-6.81l-.07,14.77Z" id="Layer_6_1_9" data-parent-layer="Layer_6_1" />
      <line class="cls-3 interactive-machine" x1="1927.12" y1="779.76" x2="1926.7" y2="793.31" id="Layer_6_1_10" data-parent-layer="Layer_6_1" />
    </g>
  </g>
  <g id="Layer_7" data-name="Layer 7">
    <g id="Layer_7_1" class="interactive-machine" data-parent-layer="Layer_7">
      <path class="cls-3 interactive-machine" d="M1788.1,986.51l-60.19-.19v-17.87l-9.24-8.89,2.5-3.45,26.28-36.42c6.74-9.6-1.85-15.69-1.85-15.69l-58.56.23.11-10.22,26.71-.44c7.54-9.09-.44-13.97-.44-13.97l-56.35.18-14.16.04c-4,8.86,2.14,13.59,2.14,13.59l11.71.17,13.91.2.19,10.02-56.38.45c-11.53,1.8-4.94,14.37-4.94,14.37l30.39,40.87c-2.4.9-8.53,8.83-8.53,8.83l.3,18.26-61.22.3c-5.54,2.69-.93,7.89-.93,7.89l87.38.59-.29,56.59c-.19,8.46,13.73,11.29,13.73,11.29l.75,25.21c9.22,12.42,16.55-1.13,16.55-1.13l.56-24.83c14.3-1.32,13.36-8.09,13.36-8.09l-.02-59.11,86.55.04c6.02-4.89,0-8.84,0-8.84ZM1670.1,936.44l.93,23.68s-.23,5.57-10.68-.7l-27.17-35.29h37.85s3.72,4.64-.93,12.31ZM1699.27,958.15c-9.63,6.05-9.88.73-9.88.73l.7-22.62c-4.35-7.29-.94-11.74-.94-11.74l35.04-.25-24.91,33.87Z" id="Layer_7_1_1" data-parent-layer="Layer_7_1" />
      <line class="cls-3 interactive-machine" x1="1656.76" y1="880.39" x2="1656.7" y2="892.87" id="Layer_7_1_2" data-parent-layer="Layer_7_1" />
      <line class="cls-3 interactive-machine" x1="1703.04" y1="880.21" x2="1702.98" y2="893.17" id="Layer_7_1_3" data-parent-layer="Layer_7_1" />
      <polygon class="cls-13 interactive-machine" points="1663.47 975.93 1694.66 975.73 1681.58 984.58 1663.47 975.93" id="Layer_7_1_4" data-parent-layer="Layer_7_1" />
      <path class="cls-8 interactive-machine" d="M1570.45,986.89s-5.71,3.28-.03,8.32l217.68.14s6.38-5.45-.6-8.77l-217.05.31Z" id="Layer_7_1_5" data-parent-layer="Layer_7_1" />
      <path class="cls-8 interactive-machine" d="M1676.54,973.3s-5.1,16.95.41,23.85c0,0,3.03,2.48,6.06-.55,0,0,3.31-16.54.14-23.29l-2.09-2.24-.55-28.72-2.81.28v28.55l-1.17,2.13Z" id="Layer_7_1_6" data-parent-layer="Layer_7_1" />
      <path class="cls-3 interactive-machine" d="M1613.61,904.25s-11.7,2.72-2.44,16.31l136.28-.87s6.82-8.45-1.9-15.67l-131.94.23Z" id="Layer_7_1_7" data-parent-layer="Layer_7_1" />
      <path class="cls-13 interactive-machine" d="M1639.91,959.5s15.03,15.18,18.84,15.79" id="Layer_7_1_8" data-parent-layer="Layer_7_1" />
      <path class="cls-13 interactive-machine" d="M1718.67,959.55s-9.46,11.97-18.61,15.86" id="Layer_7_1_9" data-parent-layer="Layer_7_1" />
      <polygon class="cls-13 interactive-machine" points="1673.19 936.24 1673.19 938.58 1684.69 938.49 1684.6 936.15 1673.19 936.24" id="Layer_7_1_10" data-parent-layer="Layer_7_1" />
      <path class="cls-3 interactive-machine" d="M1670.3,893.41s8.98-13.76,17.16.43" id="Layer_7_1_11" data-parent-layer="Layer_7_1" />
    </g>
    <g id="Layer_7_2" class="interactive-machine" data-parent-layer="Layer_7">
      <path class="cls-3 interactive-machine" d="M1536.82,989.93l-60.19-.19v-17.87l-9.24-8.89,2.5-3.45,26.28-36.42c6.74-9.6-1.85-15.69-1.85-15.69l-58.56.23.11-10.22,26.71-.44c7.54-9.09-.44-13.97-.44-13.97l-56.35.18-14.16.04c-4,8.86,2.14,13.59,2.14,13.59l11.71.17,13.91.2.19,10.02-56.38.45c-11.53,1.8-4.94,14.37-4.94,14.37l30.39,40.87c-2.4.9-8.53,8.83-8.53,8.83l.3,18.26-61.22.3c-5.54,2.69-.93,7.89-.93,7.89l87.38.59-.29,56.59c-.19,8.46,13.73,11.29,13.73,11.29l.75,25.21c9.22,12.42,16.55-1.13,16.55-1.13l.56-24.83c14.3-1.32,13.36-8.09,13.36-8.09l-.02-59.11,86.55.04c6.02-4.89,0-8.84,0-8.84ZM1418.83,939.86l.93,23.68s-.23,5.57-10.68-.7l-27.17-35.29h37.85s3.72,4.64-.93,12.31ZM1447.99,961.57c-9.63,6.05-9.88.73-9.88.73l.7-22.62c-4.35-7.29-.94-11.74-.94-11.74l35.04-.25-24.91,33.87Z" id="Layer_7_2_1" data-parent-layer="Layer_7_2" />
      <line class="cls-3 interactive-machine" x1="1405.48" y1="883.8" x2="1405.42" y2="896.29" id="Layer_7_2_2" data-parent-layer="Layer_7_2" />
      <line class="cls-3 interactive-machine" x1="1451.76" y1="883.63" x2="1451.7" y2="896.58" id="Layer_7_2_3" data-parent-layer="Layer_7_2" />
      <polygon class="cls-13 interactive-machine" points="1412.2 979.35 1443.39 979.15 1430.31 988 1412.2 979.35" id="Layer_7_2_4" data-parent-layer="Layer_7_2" />
      <path class="cls-8 interactive-machine" d="M1319.17,990.31s-5.71,3.28-.03,8.32l217.68.14s6.38-5.45-.6-8.77l-217.05.31Z" id="Layer_7_2_5" data-parent-layer="Layer_7_2" />
      <path class="cls-8 interactive-machine" d="M1425.27,976.72s-5.1,16.95.41,23.85c0,0,3.03,2.48,6.06-.55,0,0,3.31-16.54.14-23.29l-2.09-2.24-.55-28.72-2.81.28v28.55l-1.17,2.13Z" id="Layer_7_2_6" data-parent-layer="Layer_7_2" />
      <path class="cls-3 interactive-machine" d="M1362.33,907.67s-11.7,2.72-2.44,16.31l136.28-.87s6.82-8.45-1.9-15.67l-131.94.23Z" id="Layer_7_2_7" data-parent-layer="Layer_7_2" />
      <path class="cls-13 interactive-machine" d="M1388.63,962.92s15.03,15.18,18.84,15.79" id="Layer_7_2_8" data-parent-layer="Layer_7_2" />
      <path class="cls-13 interactive-machine" d="M1467.39,962.97s-9.46,11.97-18.61,15.86" id="Layer_7_2_9" data-parent-layer="Layer_7_2" />
      <polygon class="cls-13 interactive-machine" points="1421.91 939.66 1421.91 942 1433.41 941.91 1433.32 939.57 1421.91 939.66" id="Layer_7_2_10" data-parent-layer="Layer_7_2" />
      <path class="cls-3 interactive-machine" d="M1419.02,896.83s8.98-13.76,17.16.43" id="Layer_7_2_11" data-parent-layer="Layer_7_2" />
    </g>
  </g>
  <g id="Layer_8" data-name="Layer 8">
    <g id="Layer_8_1" class="interactive-machine" data-parent-layer="Layer_8">
      <path class="cls-8 interactive-machine" d="M2306.31,1110.27l-28.31-1.19-.17-5.46-7.33-.34-.34-9.89,17.02.24c12.07-.34,11.4-8.04,11.4-8.04l-1.68-119.32c-1.74-4.51-7.04-4.68-7.04-4.68h-18.66l-.27-9.6,5.95-.27c1.22-.27,1.62-6.08,1.62-6.08l27.31.14c2.84,0,3.24-1.76,3.24-1.76l.14-16.09c0-3.38-3.24-3.51-3.24-3.51l-30.15-.27-.14-33.12c-7.84-10.95-14.6,0-14.6,0l.27,33.26-31.59-.02c-2.17.07-2.36,1.87-2.36,1.87l-.55,14.83c-.18,6.04,3.48,4.58,3.48,4.58l26.33.33c-.92,6.65,5.16,6.27,5.16,6.27l.22,11.42-17.1-3.45-36.3-2.9c-16.48-1.56-17.37,11.58-17.37,11.58l-.45,49.22-9.89,2.4c-.57-2.12-5.37-2.83-5.37-2.83-14.7-1.41-21.34-19.79-21.34-19.79-11.17-15.69-21.91,1.84-21.91,1.84-9.19-2.97-10.74,4.38-10.74,4.38l-.4,43.45c-.34,9.65,10.51,7.1,10.51,7.1l2.8,3.14c13.03,15.05,20.27-1.35,20.27-1.35,3.47-17.76,20.27-16.79,20.27-16.79.39-1.35,4.63-3.47,4.63-3.47,2.51-1.54,10.62.19,10.62.19l.77,49.99c.77,12.55,12.55,12.35,12.55,12.35,41.88-.58,58.36-8.88,58.36-8.88l.3,14.06-3.81.06-.18,6.31-25.91-.04c-4.95,0-4.95,3.41-4.95,3.41l-.17,13.64c.68,2.56,3.58,3.75,3.58,3.75l74.02-.17c3.92,0,4.43-2.9,4.43-2.9v-12.11c.17-5.63-2.9-5.46-2.9-5.46ZM2272.67,971.02l6.99.49,1.3,48.64s-.65,3.9-11.22.81l-.16-50.1,3.09.16ZM2269.09,1033.73l10.92.41-.28,44.51-10.64-.55v-44.37Z" id="Layer_8_1_1" data-parent-layer="Layer_8_1" />
      <line class="cls-13 interactive-machine" x1="2180.76" y1="1019.68" x2="2181.03" y2="1035.28" id="Layer_8_1_2" data-parent-layer="Layer_8_1" />
      <line class="cls-13 interactive-machine" x1="2262.16" y1="924.26" x2="2274.94" y2="924.26" id="Layer_8_1_3" data-parent-layer="Layer_8_1" />
      <path class="cls-13 interactive-machine" d="M2281.46,961.36s-3.54,9.04.21,16.02l14.81-.08" id="Layer_8_1_4" data-parent-layer="Layer_8_1" />
      <path class="cls-8 interactive-machine" d="M2261.09,1130.71l.24,34.78s5.98,9.23,14.46-.25l-.72-34.41" id="Layer_8_1_5" data-parent-layer="Layer_8_1" />
      <path class="cls-13 interactive-machine" d="M2279.51,1093.11s-3.21-9.32,1.63-14.67l17.15-.33" id="Layer_8_1_6" data-parent-layer="Layer_8_1" />
      <line class="cls-10 interactive-machine" x1="2256.06" y1="945.31" x2="2278.29" y2="945.31" id="Layer_8_1_7" data-parent-layer="Layer_8_1" />
      <path class="cls-13 interactive-machine" d="M2132.27,999.61s-3.77.96-3.3,20.5l.31,24.55s.47,7.69,2.35,9.88" id="Layer_8_1_8" data-parent-layer="Layer_8_1" />
      <line class="cls-13 interactive-machine" x1="2262.32" y1="952" x2="2270.92" y2="951.98" id="Layer_8_1_9" data-parent-layer="Layer_8_1" />
      <path class="cls-7 interactive-machine" d="M2269.18,954.06c-2.76-2.76-5.63,0-5.63,0l-.23,147.41s2.88,3.79,5.67,0l.19-147.41Z" id="Layer_8_1_10" data-parent-layer="Layer_8_1" />
      <path class="cls-9 interactive-machine" d="M2267.84,922.98l-.28-30.02s.92-1.35,1.56,0,.43,30.09.43,30.09l-1.7-.07Z" id="Layer_8_1_11" data-parent-layer="Layer_8_1" />
      <path class="cls-7 interactive-machine" d="M2266.97,1132.5h2.24l-.32,30.19s-1.34,1.98-2.24,0l.32-30.19Z" id="Layer_8_1_12" data-parent-layer="Layer_8_1" />
      <line class="cls-10 interactive-machine" x1="2228.5" y1="1117.27" x2="2307.76" y2="1117.64" id="Layer_8_1_13" data-parent-layer="Layer_8_1" />
      <line class="cls-10 interactive-machine" x1="2228.44" y1="1124.35" x2="2307.7" y2="1124.72" id="Layer_8_1_14" data-parent-layer="Layer_8_1" />
      <line class="cls-10 interactive-machine" x1="2227.93" y1="931.09" x2="2308.13" y2="931.46" id="Layer_8_1_15" data-parent-layer="Layer_8_1" />
      <line class="cls-10 interactive-machine" x1="2227.59" y1="938.7" x2="2308.51" y2="938.97" id="Layer_8_1_16" data-parent-layer="Layer_8_1" />
      <path d="M2265.18,982.9c.09,0,.18.01.27.01,1.83.05,3.34,1.42,3.36,3.24l.23,17.34c.02,1.42-.87,2.71-2.22,3.16-.81.27-1.76.42-2.74.21-1.48-.32-2.49-1.7-2.48-3.21l.08-17.5c0-1.9,1.62-3.39,3.51-3.26Z" id="Layer_8_1_17" class="interactive-machine" data-parent-layer="Layer_8_1" />
      <path d="M2264.77,1046.73c.09,0,.18.01.27.01,1.83.05,3.34,1.42,3.36,3.24l.23,17.34c.02,1.42-.87,2.71-2.22,3.16-.81.27-1.76.42-2.74.21-1.48-.32-2.49-1.7-2.48-3.21l.08-17.5c0-1.9,1.62-3.39,3.51-3.26Z" id="Layer_8_1_18" class="interactive-machine" data-parent-layer="Layer_8_1" />
    </g>
  </g>
  <g id="Layer_9" data-name="Layer 9">
    <g id="Layer_9_1" class="interactive-machine" data-parent-layer="Layer_9">
      <path class="cls-8 interactive-machine" d="M1548.19,547.52s-12.3-1.33-11.97-10.64v-17.62s2.33-5.15,12.8-7.98l-.73-139.03-.75-25.55s.19-3.22,6.07-4.74c0,0,11.89-4.79,13.31-6.29,0,0-.89-1.14-.72-3.07v-4.57h-22.83s-7.19-1.17-7.19-8.35l.2-15.85s1.97-5.71,9.16-6.2l20.48-.2v-17.43s2.86-13.09,15.06-12.9l29.47.29s11.97.46,13.18,12.47l-.02,17.66,8.51-.33-.16-13.11s-2.22-.81-1.73-4.95l-.08-43.02s.63-3.69,4.32-3.85l5.18.08s2.9-.31,3.14,3.45l.66,45.72s-.22,2.31-2.49,3.1l.14,14.21,5.05-.14s7.39.49,7.43,6.82v16.57s-.9,8.35-11.4,8.75l-1.17.04-.19,62.61s-2.84,16.18-3.27,17.46c0,0,.85,2.98.85,6.25l.43,66.72s-.28,5.25-4.54,4.97l-9.65.14-.14,20.58s2.39,4.69,7.36,4.5l13.53.13s7.62.69,7.99,7.43l-.11,16.87s-.6,6.31-8.12,6.65l-15.38.43s-5.7-.4-5.9,5.77c0,0-.84,9.68-14.48,10.69l-19.73.23v7.33s.95,7.38-6.73,7.63l-26.96-.08s-7.16-.12-7.12-8.42v-21.28l-.73.04Z" id="Layer_9_1_1" data-parent-layer="Layer_9_1" />
      <path class="cls-10 interactive-machine" d="M1632.05,284.09s2.45,2.62,9,.54" id="Layer_9_1_2" data-parent-layer="Layer_9_1" />
      <line class="cls-10 interactive-machine" x1="1641.23" y1="299.23" x2="1641.16" y2="330.52" id="Layer_9_1_3" data-parent-layer="Layer_9_1" />
      <line class="cls-10 interactive-machine" x1="1566.02" y1="297.42" x2="1566.2" y2="328.02" id="Layer_9_1_4" data-parent-layer="Layer_9_1" />
      <line class="cls-10 interactive-machine" x1="1581.69" y1="267.48" x2="1581.93" y2="334.03" id="Layer_9_1_5" data-parent-layer="Layer_9_1" />
      <path class="cls-10 interactive-machine" d="M1566.34,334.32l55.75-.21s1.86.08,1.78-2.91l-.16-33.67" id="Layer_9_1_6" data-parent-layer="Layer_9_1" />
      <line class="cls-10 interactive-machine" x1="1607.07" y1="267.57" x2="1607.54" y2="333.52" id="Layer_9_1_7" data-parent-layer="Layer_9_1" />
      <line class="cls-10 interactive-machine" x1="1549.03" y1="511.28" x2="1548.93" y2="547.48" id="Layer_9_1_8" data-parent-layer="Layer_9_1" />
      <path class="cls-10 interactive-machine" d="M1553.52,499.79l.52,69.47s1.04,3.77,4.29,3.77l22.77-.26s5.2.78,5.46-5.72l-.39-66.22s-.26-4.03-4.55-4.29l-24.59.13s-2.6.52-3.51,3.12Z" id="Layer_9_1_9" data-parent-layer="Layer_9_1" />
      <line class="cls-10 interactive-machine" x1="1624.59" y1="509.61" x2="1624.82" y2="548.14" id="Layer_9_1_10" data-parent-layer="Layer_9_1" />
      <path class="cls-10 interactive-machine" d="M1637.65,410.94s-1.55-1.29-3.47-1.26l-25.55.15s-4.22.25-4.34,3.6l-.74,71.18s.62,4.46,4.34,4.22l16.84.2" id="Layer_9_1_11" data-parent-layer="Layer_9_1" />
      <path class="cls-10 interactive-machine" d="M1617.44,489.28l.08,56.69s0,7.82-5.53,8.09l-25.22.4" id="Layer_9_1_12" data-parent-layer="Layer_9_1" />
      <path class="cls-10 interactive-machine" d="M1632.22,297.2l.13,97.7s-.65,8.5-2.94,14.38" id="Layer_9_1_13" data-parent-layer="Layer_9_1" />
      <line class="cls-10 interactive-machine" x1="1623.75" y1="329.53" x2="1632.03" y2="329.53" id="Layer_9_1_14" data-parent-layer="Layer_9_1" />
      <polygon class="cls-10 interactive-machine" points="1570.18 334.46 1570.18 359.12 1619.52 358.95 1619.69 334.28 1570.18 334.46" id="Layer_9_1_15" data-parent-layer="Layer_9_1" />
      <rect class="cls-10 interactive-machine" x="1564.49" y="358.94" width="61.21" height="10.9" rx="5.45" ry="5.45" id="Layer_9_1_16" data-parent-layer="Layer_9_1" />
      <line class="cls-10 interactive-machine" x1="1617.41" y1="369.7" x2="1617.41" y2="409.7" id="Layer_9_1_17" data-parent-layer="Layer_9_1" />
      <line class="cls-10 interactive-machine" x1="1625.71" y1="367.46" x2="1625.2" y2="409.58" id="Layer_9_1_18" data-parent-layer="Layer_9_1" />
      <line class="cls-10 interactive-machine" x1="1619.74" y1="335" x2="1632.11" y2="342.66" id="Layer_9_1_19" data-parent-layer="Layer_9_1" />
      <line class="cls-10 interactive-machine" x1="1619.55" y1="347.57" x2="1632.05" y2="355.34" id="Layer_9_1_20" data-parent-layer="Layer_9_1" />
      <path class="cls-10 interactive-machine" d="M1570.18,334.46c-.53.37-10.63,23.49-10.63,23.49l-.1,138.57" id="Layer_9_1_21" data-parent-layer="Layer_9_1" />
      <polyline class="cls-10 interactive-machine" points="1563.2 349.68 1557.72 351.88 1548.5 372.93" id="Layer_9_1_22" data-parent-layer="Layer_9_1" />
      <line class="cls-10 interactive-machine" x1="1566.87" y1="369.84" x2="1565.98" y2="496.1" id="Layer_9_1_23" data-parent-layer="Layer_9_1" />
      <line class="cls-10 interactive-machine" x1="1577.04" y1="369.92" x2="1577.04" y2="496.3" id="Layer_9_1_24" data-parent-layer="Layer_9_1" />
    </g>
    <g id="Layer_9_2" class="interactive-machine" data-parent-layer="Layer_9">
      <path class="cls-8 interactive-machine" d="M1748.01,540.23s-12.3-1.33-11.97-10.64v-17.62s2.33-5.15,12.8-7.98l-.73-139.03-.75-25.55s.19-3.22,6.07-4.74c0,0,11.89-4.79,13.31-6.29,0,0-.89-1.14-.72-3.07v-4.57h-22.83s-7.19-1.17-7.19-8.35l.2-15.85s1.97-5.71,9.16-6.2l20.48-.2v-17.43s2.86-13.09,15.06-12.9l29.47.29s11.97.46,13.18,12.47l-.02,17.66,8.51-.33-.16-13.11s-2.22-.81-1.73-4.95l-.08-43.02s.63-3.69,4.32-3.85l5.18.08s2.9-.31,3.14,3.45l.66,45.72s-.22,2.31-2.49,3.1l.14,14.21,5.05-.14s7.39.49,7.43,6.82v16.57s-.9,8.35-11.4,8.75l-1.17.04-.19,62.61s-2.84,16.18-3.27,17.46c0,0,.85,2.98.85,6.25l.43,66.72s-.28,5.25-4.54,4.97l-9.65.14-.14,20.58s2.39,4.69,7.36,4.5l13.53.13s7.62.69,7.99,7.43l-.11,16.87s-.6,6.31-8.12,6.65l-15.38.43s-5.7-.4-5.9,5.77c0,0-.84,9.68-14.48,10.69l-19.73.23v7.33s.95,7.38-6.73,7.63l-26.96-.08s-7.16-.12-7.12-8.42v-21.28l-.73.04Z" id="Layer_9_2_1" data-parent-layer="Layer_9_2" />
      <path class="cls-10 interactive-machine" d="M1831.87,276.8s2.45,2.62,9,.54" id="Layer_9_2_2" data-parent-layer="Layer_9_2" />
      <line class="cls-10 interactive-machine" x1="1841.04" y1="291.94" x2="1840.98" y2="323.23" id="Layer_9_2_3" data-parent-layer="Layer_9_2" />
      <line class="cls-10 interactive-machine" x1="1765.84" y1="290.13" x2="1766.02" y2="320.74" id="Layer_9_2_4" data-parent-layer="Layer_9_2" />
      <line class="cls-10 interactive-machine" x1="1781.51" y1="260.19" x2="1781.75" y2="326.74" id="Layer_9_2_5" data-parent-layer="Layer_9_2" />
      <path class="cls-10 interactive-machine" d="M1766.16,327.03l55.75-.21s1.86.08,1.78-2.91l-.16-33.67" id="Layer_9_2_6" data-parent-layer="Layer_9_2" />
      <line class="cls-10 interactive-machine" x1="1806.89" y1="260.29" x2="1807.36" y2="326.23" id="Layer_9_2_7" data-parent-layer="Layer_9_2" />
      <line class="cls-10 interactive-machine" x1="1748.84" y1="504" x2="1748.75" y2="540.19" id="Layer_9_2_8" data-parent-layer="Layer_9_2" />
      <path class="cls-10 interactive-machine" d="M1753.34,492.5l.52,69.47s1.04,3.77,4.29,3.77l22.77-.26s5.2.78,5.46-5.72l-.39-66.22s-.26-4.03-4.55-4.29l-24.59.13s-2.6.52-3.51,3.12Z" id="Layer_9_2_9" data-parent-layer="Layer_9_2" />
      <line class="cls-10 interactive-machine" x1="1824.41" y1="502.32" x2="1824.64" y2="540.85" id="Layer_9_2_10" data-parent-layer="Layer_9_2" />
      <path class="cls-10 interactive-machine" d="M1837.47,403.65s-1.55-1.29-3.47-1.26l-25.55.15s-4.22.25-4.34,3.6l-.74,71.18s.62,4.46,4.34,4.22l16.84.2" id="Layer_9_2_11" data-parent-layer="Layer_9_2" />
      <path class="cls-10 interactive-machine" d="M1817.26,481.99l.08,56.69s0,7.82-5.53,8.09l-25.22.4" id="Layer_9_2_12" data-parent-layer="Layer_9_2" />
      <path class="cls-10 interactive-machine" d="M1832.04,289.91l.13,97.7s-.65,8.5-2.94,14.38" id="Layer_9_2_13" data-parent-layer="Layer_9_2" />
      <line class="cls-10 interactive-machine" x1="1823.57" y1="322.24" x2="1831.85" y2="322.24" id="Layer_9_2_14" data-parent-layer="Layer_9_2" />
      <polygon class="cls-10 interactive-machine" points="1770 327.17 1770 351.84 1819.34 351.66 1819.51 327 1770 327.17" id="Layer_9_2_15" data-parent-layer="Layer_9_2" />
      <rect class="cls-10 interactive-machine" x="1764.31" y="351.65" width="61.21" height="10.9" rx="5.45" ry="5.45" id="Layer_9_2_16" data-parent-layer="Layer_9_2" />
      <line class="cls-10 interactive-machine" x1="1817.23" y1="362.41" x2="1817.23" y2="402.41" id="Layer_9_2_17" data-parent-layer="Layer_9_2" />
      <line class="cls-10 interactive-machine" x1="1825.52" y1="360.17" x2="1825.02" y2="402.29" id="Layer_9_2_18" data-parent-layer="Layer_9_2" />
      <line class="cls-10 interactive-machine" x1="1819.56" y1="327.72" x2="1831.93" y2="335.37" id="Layer_9_2_19" data-parent-layer="Layer_9_2" />
      <line class="cls-10 interactive-machine" x1="1819.37" y1="340.28" x2="1831.87" y2="348.06" id="Layer_9_2_20" data-parent-layer="Layer_9_2" />
      <path class="cls-10 interactive-machine" d="M1770,327.17c-.53.37-10.63,23.49-10.63,23.49l-.1,138.57" id="Layer_9_2_21" data-parent-layer="Layer_9_2" />
      <polyline class="cls-10 interactive-machine" points="1763.02 342.39 1757.54 344.59 1748.31 365.64" id="Layer_9_2_22" data-parent-layer="Layer_9_2" />
      <line class="cls-10 interactive-machine" x1="1766.68" y1="362.55" x2="1765.8" y2="488.81" id="Layer_9_2_23" data-parent-layer="Layer_9_2" />
      <line class="cls-10 interactive-machine" x1="1776.86" y1="362.63" x2="1776.86" y2="489.02" id="Layer_9_2_24" data-parent-layer="Layer_9_2" />
    </g>
    <g id="Layer_9_3" class="interactive-machine" data-parent-layer="Layer_9">
      <path class="cls-8 interactive-machine" d="M1952.97,541.56s-12.3-1.33-11.97-10.64v-17.62s2.33-5.15,12.8-7.98l-.73-139.03-.75-25.55s.19-3.22,6.07-4.74c0,0,11.89-4.79,13.31-6.29,0,0-.89-1.14-.72-3.07v-4.57h-22.83s-7.19-1.17-7.19-8.35l.2-15.85s1.97-5.71,9.16-6.2l20.48-.2v-17.43s2.86-13.09,15.06-12.9l29.47.29s11.97.46,13.18,12.47l-.02,17.66,8.51-.33-.16-13.11s-2.22-.81-1.73-4.95l-.08-43.02s.63-3.69,4.32-3.85l5.18.08s2.9-.31,3.14,3.45l.66,45.72s-.22,2.31-2.49,3.1l.14,14.21,5.05-.14s7.39.49,7.43,6.82v16.57s-.9,8.35-11.4,8.75l-1.17.04-.19,62.61s-2.84,16.18-3.27,17.46c0,0,.85,2.98.85,6.25l.43,66.72s-.28,5.25-4.54,4.97l-9.65.14-.14,20.58s2.39,4.69,7.36,4.5l13.53.13s7.62.69,7.99,7.43l-.11,16.87s-.6,6.31-8.12,6.65l-15.38.43s-5.7-.4-5.9,5.77c0,0-.84,9.68-14.48,10.69l-19.73.23v7.33s.95,7.38-6.73,7.63l-26.96-.08s-7.16-.12-7.12-8.42v-21.28l-.73.04Z" id="Layer_9_3_1" data-parent-layer="Layer_9_3" />
      <path class="cls-10 interactive-machine" d="M2036.83,278.13s2.45,2.62,9,.54" id="Layer_9_3_2" data-parent-layer="Layer_9_3" />
      <line class="cls-10 interactive-machine" x1="2046" y1="293.27" x2="2045.94" y2="324.56" id="Layer_9_3_3" data-parent-layer="Layer_9_3" />
      <line class="cls-10 interactive-machine" x1="1970.8" y1="291.46" x2="1970.98" y2="322.07" id="Layer_9_3_4" data-parent-layer="Layer_9_3" />
      <line class="cls-10 interactive-machine" x1="1986.47" y1="261.52" x2="1986.71" y2="328.07" id="Layer_9_3_5" data-parent-layer="Layer_9_3" />
      <path class="cls-10 interactive-machine" d="M1971.12,328.36l55.75-.21s1.86.08,1.78-2.91l-.16-33.67" id="Layer_9_3_6" data-parent-layer="Layer_9_3" />
      <line class="cls-10 interactive-machine" x1="2011.85" y1="261.62" x2="2012.32" y2="327.57" id="Layer_9_3_7" data-parent-layer="Layer_9_3" />
      <line class="cls-10 interactive-machine" x1="1953.8" y1="505.33" x2="1953.71" y2="541.52" id="Layer_9_3_8" data-parent-layer="Layer_9_3" />
      <path class="cls-10 interactive-machine" d="M1958.3,493.84l.52,69.47s1.04,3.77,4.29,3.77l22.77-.26s5.2.78,5.46-5.72l-.39-66.22s-.26-4.03-4.55-4.29l-24.59.13s-2.6.52-3.51,3.12Z" id="Layer_9_3_9" data-parent-layer="Layer_9_3" />
      <line class="cls-10 interactive-machine" x1="2029.37" y1="503.65" x2="2029.6" y2="542.18" id="Layer_9_3_10" data-parent-layer="Layer_9_3" />
      <path class="cls-10 interactive-machine" d="M2042.43,404.99s-1.55-1.29-3.47-1.26l-25.55.15s-4.22.25-4.34,3.6l-.74,71.18s.62,4.46,4.34,4.22l16.84.2" id="Layer_9_3_11" data-parent-layer="Layer_9_3" />
      <path class="cls-10 interactive-machine" d="M2022.22,483.32l.08,56.69s0,7.82-5.53,8.09l-25.22.4" id="Layer_9_3_12" data-parent-layer="Layer_9_3" />
      <path class="cls-10 interactive-machine" d="M2037,291.24l.13,97.7s-.65,8.5-2.94,14.38" id="Layer_9_3_13" data-parent-layer="Layer_9_3" />
      <line class="cls-10 interactive-machine" x1="2028.53" y1="323.58" x2="2036.81" y2="323.58" id="Layer_9_3_14" data-parent-layer="Layer_9_3" />
      <polygon class="cls-10 interactive-machine" points="1974.96 328.5 1974.96 353.17 2024.3 352.99 2024.47 328.33 1974.96 328.5" id="Layer_9_3_15" data-parent-layer="Layer_9_3" />
      <rect class="cls-10 interactive-machine" x="1969.27" y="352.98" width="61.21" height="10.9" rx="5.45" ry="5.45" id="Layer_9_3_16" data-parent-layer="Layer_9_3" />
      <line class="cls-10 interactive-machine" x1="2022.19" y1="363.74" x2="2022.19" y2="403.74" id="Layer_9_3_17" data-parent-layer="Layer_9_3" />
      <line class="cls-10 interactive-machine" x1="2030.48" y1="361.51" x2="2029.98" y2="403.63" id="Layer_9_3_18" data-parent-layer="Layer_9_3" />
      <line class="cls-10 interactive-machine" x1="2024.52" y1="329.05" x2="2036.89" y2="336.7" id="Layer_9_3_19" data-parent-layer="Layer_9_3" />
      <line class="cls-10 interactive-machine" x1="2024.33" y1="341.61" x2="2036.83" y2="349.39" id="Layer_9_3_20" data-parent-layer="Layer_9_3" />
      <path class="cls-10 interactive-machine" d="M1974.96,328.5c-.53.37-10.63,23.49-10.63,23.49l-.1,138.57" id="Layer_9_3_21" data-parent-layer="Layer_9_3" />
      <polyline class="cls-10 interactive-machine" points="1967.98 343.72 1962.5 345.92 1953.27 366.97" id="Layer_9_3_22" data-parent-layer="Layer_9_3" />
      <line class="cls-10 interactive-machine" x1="1971.64" y1="363.88" x2="1970.76" y2="490.14" id="Layer_9_3_23" data-parent-layer="Layer_9_3" />
      <line class="cls-10 interactive-machine" x1="1981.82" y1="363.96" x2="1981.82" y2="490.35" id="Layer_9_3_24" data-parent-layer="Layer_9_3" />
    </g>
    <g id="Layer_9_4" class="interactive-machine" data-parent-layer="Layer_9">
      <path class="cls-8 interactive-machine" d="M2132.65,544.23s-12.3-1.33-11.97-10.64v-17.62s2.33-5.15,12.8-7.98l-.73-139.03-.75-25.55s.19-3.22,6.07-4.74c0,0,11.89-4.79,13.31-6.29,0,0-.89-1.14-.72-3.07v-4.57h-22.83s-7.19-1.17-7.19-8.35l.2-15.85s1.97-5.71,9.16-6.2l20.48-.2v-17.43s2.86-13.09,15.06-12.9l29.47.29s11.97.46,13.18,12.47l-.02,17.66,8.51-.33-.16-13.11s-2.22-.81-1.73-4.95l-.08-43.02s.63-3.69,4.32-3.85l5.18.08s2.9-.31,3.14,3.45l.66,45.72s-.22,2.31-2.49,3.1l.14,14.21,5.05-.14s7.39.49,7.43,6.82v16.57s-.9,8.35-11.4,8.75l-1.17.04-.19,62.61s-2.84,16.18-3.27,17.46c0,0,.85,2.98.85,6.25l.43,66.72s-.28,5.25-4.54,4.97l-9.65.14-.14,20.58s2.39,4.69,7.36,4.5l13.53.13s7.62.69,7.99,7.43l-.11,16.87s-.6,6.31-8.12,6.65l-15.38.43s-5.7-.4-5.9,5.77c0,0-.84,9.68-14.48,10.69l-19.73.23v7.33s.95,7.38-6.73,7.63l-26.96-.08s-7.16-.12-7.12-8.42v-21.28l-.73.04Z" id="Layer_9_4_1" data-parent-layer="Layer_9_4" />
      <path class="cls-10 interactive-machine" d="M2216.51,280.79s2.45,2.62,9,.54" id="Layer_9_4_2" data-parent-layer="Layer_9_4" />
      <line class="cls-10 interactive-machine" x1="2225.68" y1="295.93" x2="2225.61" y2="327.22" id="Layer_9_4_3" data-parent-layer="Layer_9_4" />
      <line class="cls-10 interactive-machine" x1="2150.47" y1="294.13" x2="2150.65" y2="324.73" id="Layer_9_4_4" data-parent-layer="Layer_9_4" />
      <line class="cls-10 interactive-machine" x1="2166.14" y1="264.18" x2="2166.38" y2="330.74" id="Layer_9_4_5" data-parent-layer="Layer_9_4" />
      <path class="cls-10 interactive-machine" d="M2150.8,331.03l55.75-.21s1.86.08,1.78-2.91l-.16-33.67" id="Layer_9_4_6" data-parent-layer="Layer_9_4" />
      <line class="cls-10 interactive-machine" x1="2191.53" y1="264.28" x2="2191.99" y2="330.23" id="Layer_9_4_7" data-parent-layer="Layer_9_4" />
      <line class="cls-10 interactive-machine" x1="2133.48" y1="507.99" x2="2133.38" y2="544.19" id="Layer_9_4_8" data-parent-layer="Layer_9_4" />
      <path class="cls-10 interactive-machine" d="M2137.98,496.5l.52,69.47s1.04,3.77,4.29,3.77l22.77-.26s5.2.78,5.46-5.72l-.39-66.22s-.26-4.03-4.55-4.29l-24.59.13s-2.6.52-3.51,3.12Z" id="Layer_9_4_9" data-parent-layer="Layer_9_4" />
      <line class="cls-10 interactive-machine" x1="2209.04" y1="506.31" x2="2209.28" y2="544.85" id="Layer_9_4_10" data-parent-layer="Layer_9_4" />
      <path class="cls-10 interactive-machine" d="M2222.1,407.65s-1.55-1.29-3.47-1.26l-25.55.15s-4.22.25-4.34,3.6l-.74,71.18s.62,4.46,4.34,4.22l16.84.2" id="Layer_9_4_11" data-parent-layer="Layer_9_4" />
      <path class="cls-10 interactive-machine" d="M2201.89,485.98l.08,56.69s0,7.82-5.53,8.09l-25.22.4" id="Layer_9_4_12" data-parent-layer="Layer_9_4" />
      <path class="cls-10 interactive-machine" d="M2216.67,293.9l.13,97.7s-.65,8.5-2.94,14.38" id="Layer_9_4_13" data-parent-layer="Layer_9_4" />
      <line class="cls-10 interactive-machine" x1="2208.2" y1="326.24" x2="2216.48" y2="326.24" id="Layer_9_4_14" data-parent-layer="Layer_9_4" />
      <polygon class="cls-10 interactive-machine" points="2154.63 331.16 2154.63 355.83 2203.97 355.66 2204.14 330.99 2154.63 331.16" id="Layer_9_4_15" data-parent-layer="Layer_9_4" />
      <rect class="cls-10 interactive-machine" x="2148.94" y="355.64" width="61.21" height="10.9" rx="5.45" ry="5.45" id="Layer_9_4_16" data-parent-layer="Layer_9_4" />
      <line class="cls-10 interactive-machine" x1="2201.86" y1="366.4" x2="2201.86" y2="406.41" id="Layer_9_4_17" data-parent-layer="Layer_9_4" />
      <line class="cls-10 interactive-machine" x1="2210.16" y1="364.17" x2="2209.65" y2="406.29" id="Layer_9_4_18" data-parent-layer="Layer_9_4" />
      <line class="cls-10 interactive-machine" x1="2204.19" y1="331.71" x2="2216.56" y2="339.36" id="Layer_9_4_19" data-parent-layer="Layer_9_4" />
      <line class="cls-10 interactive-machine" x1="2204" y1="344.27" x2="2216.5" y2="352.05" id="Layer_9_4_20" data-parent-layer="Layer_9_4" />
      <path class="cls-10 interactive-machine" d="M2154.63,331.16c-.53.37-10.63,23.49-10.63,23.49l-.1,138.57" id="Layer_9_4_21" data-parent-layer="Layer_9_4" />
      <polyline class="cls-10 interactive-machine" points="2147.65 346.38 2142.17 348.58 2132.95 369.63" id="Layer_9_4_22" data-parent-layer="Layer_9_4" />
      <line class="cls-10 interactive-machine" x1="2151.32" y1="366.54" x2="2150.43" y2="492.8" id="Layer_9_4_23" data-parent-layer="Layer_9_4" />
      <line class="cls-10 interactive-machine" x1="2161.49" y1="366.62" x2="2161.49" y2="493.01" id="Layer_9_4_24" data-parent-layer="Layer_9_4" />
    </g>
  </g>
  <g id="Layer_10" data-name="Layer 10">
    <g id="Layer_10_1" class="interactive-machine" data-parent-layer="Layer_10">
      <g id="Layer_10_1_1" class="interactive-machine" data-parent-layer="Layer_10_1">
        <rect class="cls-8 interactive-machine" x="2200.06" y="642.42" width="103.77" height="193.54" id="Layer_10_1_1_1" data-parent-layer="Layer_10_1_1" />
        <rect class="cls-13 interactive-machine" x="2277.56" y="642.52" width="16.39" height="192.35" id="Layer_10_1_1_2" data-parent-layer="Layer_10_1_1" />
        <rect class="cls-13 interactive-machine" x="2211.49" y="642.65" width="56.7" height="192.22" id="Layer_10_1_1_3" data-parent-layer="Layer_10_1_1" />
        <line class="cls-13 interactive-machine" x1="2229.97" y1="643.15" x2="2230.09" y2="834.56" id="Layer_10_1_1_4" data-parent-layer="Layer_10_1_1" />
        <line class="cls-13 interactive-machine" x1="2224.53" y1="642.99" x2="2223.81" y2="835.05" id="Layer_10_1_1_5" data-parent-layer="Layer_10_1_1" />
        <rect class="cls-8 interactive-machine" x="2197.31" y="630.88" width="112.43" height="11.9" rx="5.95" ry="5.95" id="Layer_10_1_1_6" data-parent-layer="Layer_10_1_1" />
        <rect class="cls-8 interactive-machine" x="2197.42" y="834.86" width="112.43" height="11.9" rx="5.95" ry="5.95" id="Layer_10_1_1_7" data-parent-layer="Layer_10_1_1" />
      </g>
      <g id="Layer_10_1_2" class="interactive-machine" data-parent-layer="Layer_10_1">
        <path class="cls-8 interactive-machine" d="M2278.2,654.46v-3.14s-2.75-2.5-4.37.83c0,0-.34,7.12.1,8.44,0,0,.25,1.77,2.01,2.5,0,0,1.91.29,2.16-1.96l-.1-2.16s1.57.29,1.86-.74c0,0,5.94,1.57,12.42.1,0,0,.65,1.08,1.93.66l.04,3.5s2.44,2.97,4.81-.39l-.18-11.53s-3.29-1.24-4.56.04l-.07,3.85s-1.1-.07-2.23.78c0,0-6.93-1.27-11.84.14,0,0-.98-1.11-1.98-.93Z" id="Layer_10_1_2_1" data-parent-layer="Layer_10_1_2" />
        <path class="cls-1 interactive-machine" d="M2281.77,655.04s.74,1.77.21,3.54c0,0,5.94.74,8.7,0,0,0,.57-2.51-.18-3.5,0,0-2.69-1.03-8.73-.04Z" id="Layer_10_1_2_2" data-parent-layer="Layer_10_1_2" />
      </g>
      <g id="Layer_10_1_3" class="interactive-machine" data-parent-layer="Layer_10_1">
        <path class="cls-8 interactive-machine" d="M2219.59,650.86s-.23.26-.56.74c-1.32,1.93-4.23,7.37.06,13.05,0,0,1.35,2.07,3.85,2.33l6.37-.41s3.41-2.39,3.77-6.57c0,0,7.44.82,9.12.66,0,0,4.13,0,5.65-.51,0,0,.51,5.6,3.97,6.37l7.23.1s2.8-.82,3.92-4.89c0,0,2.09-4.97-.87-10.75,0,0-1.17-2.78-4.79-2.27l-4.69-.05s-2.55-.41-4.02,3.36l-1.07,3.41s-7.34-1.12-14.62.31c0,0-.1-4.23-3.41-6.22l-7.18-.2s-1.74.06-2.74,1.53Z" id="Layer_10_1_3_1" data-parent-layer="Layer_10_1_3" />
        <path class="cls-13 interactive-machine" d="M2253.3,651.35s4.25,4.79.2,12.83" id="Layer_10_1_3_2" data-parent-layer="Layer_10_1_3" />
        <path class="cls-13 interactive-machine" d="M2253.33,648.65s1.97,1.24,3.2,4.11c.56,1.32.97,2.98.97,5.02,0,0,.35,6.29-3.79,8.75" id="Layer_10_1_3_3" data-parent-layer="Layer_10_1_3" />
        <line class="cls-13 interactive-machine" x1="2262.66" y1="652.55" x2="2256.77" y2="652.77" id="Layer_10_1_3_4" data-parent-layer="Layer_10_1_3" />
        <line class="cls-13 interactive-machine" x1="2262.73" y1="661.62" x2="2257.15" y2="661.62" id="Layer_10_1_3_5" data-parent-layer="Layer_10_1_3" />
        <path class="cls-13 interactive-machine" d="M2247.55,655.44l2.68.26s1.53-1.7,2.26.16c0,0,1.08,3.42-.67,4.24,0,0-.53.59-1.36-.15l-2.96.1c.77-1.62.04-4.37.04-4.37" id="Layer_10_1_3_6" data-parent-layer="Layer_10_1_3" />
        <path class="cls-13 interactive-machine" d="M2250.3,655.76s1.64,2,.11,4.14" id="Layer_10_1_3_7" data-parent-layer="Layer_10_1_3" />
        <path class="cls-13 interactive-machine" d="M2232.92,655.74s.26,3.13.15,4.4" id="Layer_10_1_3_8" data-parent-layer="Layer_10_1_3" />
        <path class="cls-1 interactive-machine" d="M2235.79,655.31s.71,2.72.02,4.97c0,0,8.04.88,11.53.04,0,0,1.09-1.93.07-4.93,0,0-5.74-.69-11.62-.07Z" id="Layer_10_1_3_9" data-parent-layer="Layer_10_1_3" />
        <ellipse class="cls-13 interactive-machine" cx="2220.88" cy="658.22" rx="3.86" ry="7.07" id="Layer_10_1_3_10" data-parent-layer="Layer_10_1_3" />
        <path class="cls-13 interactive-machine" d="M2223.73,649.41s1.6,1.11,2.71,3.62c.54,1.22.95,2.77,1.02,4.68,0,0,.4,6.61-4.03,8.99l-.29.2-.19.07" id="Layer_10_1_3_11" data-parent-layer="Layer_10_1_3" />
        <line class="cls-13 interactive-machine" x1="2232.15" y1="652.81" x2="2226.56" y2="652.89" id="Layer_10_1_3_12" data-parent-layer="Layer_10_1_3" />
        <line class="cls-13 interactive-machine" x1="2232.56" y1="661.59" x2="2227.16" y2="661.66" id="Layer_10_1_3_13" data-parent-layer="Layer_10_1_3" />
      </g>
      <g id="Layer_10_1_4" class="interactive-machine" data-parent-layer="Layer_10_1">
        <path class="cls-8 interactive-machine" d="M2278.03,686.67v-3.14s-2.75-2.5-4.37.83c0,0-.34,7.12.1,8.44,0,0,.25,1.77,2.01,2.5,0,0,1.91.29,2.16-1.96l-.1-2.16s1.57.29,1.86-.74c0,0,5.94,1.57,12.42.1,0,0,.65,1.08,1.93.66l.04,3.5s2.44,2.97,4.81-.39l-.18-11.53s-3.29-1.24-4.56.04l-.07,3.85s-1.1-.07-2.23.78c0,0-6.93-1.27-11.84.14,0,0-.98-1.11-1.98-.93Z" id="Layer_10_1_4_1" data-parent-layer="Layer_10_1_4" />
        <path class="cls-1 interactive-machine" d="M2281.6,687.24s.74,1.77.21,3.54c0,0,5.94.74,8.7,0,0,0,.57-2.51-.18-3.5,0,0-2.69-1.03-8.73-.04Z" id="Layer_10_1_4_2" data-parent-layer="Layer_10_1_4" />
      </g>
      <g id="Layer_10_1_5" class="interactive-machine" data-parent-layer="Layer_10_1">
        <path class="cls-8 interactive-machine" d="M2219.42,683.06s-.23.26-.56.74c-1.32,1.93-4.23,7.37.06,13.05,0,0,1.35,2.07,3.85,2.33l6.37-.41s3.41-2.39,3.77-6.57c0,0,7.44.82,9.12.66,0,0,4.13,0,5.65-.51,0,0,.51,5.6,3.97,6.37l7.23.1s2.8-.82,3.92-4.89c0,0,2.09-4.97-.87-10.75,0,0-1.17-2.78-4.79-2.27l-4.69-.05s-2.55-.41-4.02,3.36l-1.07,3.41s-7.34-1.12-14.62.31c0,0-.1-4.23-3.41-6.22l-7.18-.2s-1.74.06-2.74,1.53Z" id="Layer_10_1_5_1" data-parent-layer="Layer_10_1_5" />
        <path class="cls-13 interactive-machine" d="M2253.13,683.56s4.25,4.79.2,12.83" id="Layer_10_1_5_2" data-parent-layer="Layer_10_1_5" />
        <path class="cls-13 interactive-machine" d="M2253.16,680.86s1.97,1.24,3.2,4.11c.56,1.32.97,2.98.97,5.02,0,0,.35,6.29-3.79,8.75" id="Layer_10_1_5_3" data-parent-layer="Layer_10_1_5" />
        <line class="cls-13 interactive-machine" x1="2262.49" y1="684.75" x2="2256.6" y2="684.98" id="Layer_10_1_5_4" data-parent-layer="Layer_10_1_5" />
        <line class="cls-13 interactive-machine" x1="2262.56" y1="693.83" x2="2256.98" y2="693.83" id="Layer_10_1_5_5" data-parent-layer="Layer_10_1_5" />
        <path class="cls-13 interactive-machine" d="M2247.38,687.64l2.68.26s1.53-1.7,2.26.16c0,0,1.08,3.42-.67,4.24,0,0-.53.59-1.36-.15l-2.96.1c.77-1.62.04-4.37.04-4.37" id="Layer_10_1_5_6" data-parent-layer="Layer_10_1_5" />
        <path class="cls-13 interactive-machine" d="M2250.14,687.96s1.64,2,.11,4.14" id="Layer_10_1_5_7" data-parent-layer="Layer_10_1_5" />
        <path class="cls-13 interactive-machine" d="M2232.76,687.95s.26,3.13.15,4.4" id="Layer_10_1_5_8" data-parent-layer="Layer_10_1_5" />
        <path class="cls-1 interactive-machine" d="M2235.62,687.51s.71,2.72.02,4.97c0,0,8.04.88,11.53.04,0,0,1.09-1.93.07-4.93,0,0-5.74-.69-11.62-.07Z" id="Layer_10_1_5_9" data-parent-layer="Layer_10_1_5" />
        <ellipse class="cls-13 interactive-machine" cx="2220.71" cy="690.43" rx="3.86" ry="7.07" id="Layer_10_1_5_10" data-parent-layer="Layer_10_1_5" />
        <path class="cls-13 interactive-machine" d="M2223.56,681.62s1.6,1.11,2.71,3.62c.54,1.22.95,2.77,1.02,4.68,0,0,.4,6.61-4.03,8.99l-.29.2-.19.07" id="Layer_10_1_5_11" data-parent-layer="Layer_10_1_5" />
        <line class="cls-13 interactive-machine" x1="2231.98" y1="685.01" x2="2226.39" y2="685.1" id="Layer_10_1_5_12" data-parent-layer="Layer_10_1_5" />
        <line class="cls-13 interactive-machine" x1="2232.39" y1="693.8" x2="2226.99" y2="693.87" id="Layer_10_1_5_13" data-parent-layer="Layer_10_1_5" />
      </g>
      <g id="Layer_10_1_6" class="interactive-machine" data-parent-layer="Layer_10_1">
        <path class="cls-8 interactive-machine" d="M2277.84,718.1v-3.14s-2.75-2.5-4.37.83c0,0-.34,7.12.1,8.44,0,0,.25,1.77,2.01,2.5,0,0,1.91.29,2.16-1.96l-.1-2.16s1.57.29,1.86-.74c0,0,5.94,1.57,12.42.1,0,0,.65,1.08,1.93.66l.04,3.5s2.44,2.97,4.81-.39l-.18-11.53s-3.29-1.24-4.56.04l-.07,3.85s-1.1-.07-2.23.78c0,0-6.93-1.27-11.84.14,0,0-.98-1.11-1.98-.93Z" id="Layer_10_1_6_1" data-parent-layer="Layer_10_1_6" />
        <path class="cls-1 interactive-machine" d="M2281.41,718.67s.74,1.77.21,3.54c0,0,5.94.74,8.7,0,0,0,.57-2.51-.18-3.5,0,0-2.69-1.03-8.73-.04Z" id="Layer_10_1_6_2" data-parent-layer="Layer_10_1_6" />
      </g>
      <g id="Layer_10_1_7" class="interactive-machine" data-parent-layer="Layer_10_1">
        <path class="cls-8 interactive-machine" d="M2219.23,714.49s-.23.26-.56.74c-1.32,1.93-4.23,7.37.06,13.05,0,0,1.35,2.07,3.85,2.33l6.37-.41s3.41-2.39,3.77-6.57c0,0,7.44.82,9.12.66,0,0,4.13,0,5.65-.51,0,0,.51,5.6,3.97,6.37l7.23.1s2.8-.82,3.92-4.89c0,0,2.09-4.97-.87-10.75,0,0-1.17-2.78-4.79-2.27l-4.69-.05s-2.55-.41-4.02,3.36l-1.07,3.41s-7.34-1.12-14.62.31c0,0-.1-4.23-3.41-6.22l-7.18-.2s-1.74.06-2.74,1.53Z" id="Layer_10_1_7_1" data-parent-layer="Layer_10_1_7" />
        <path class="cls-13 interactive-machine" d="M2252.94,714.99s4.25,4.79.2,12.83" id="Layer_10_1_7_2" data-parent-layer="Layer_10_1_7" />
        <path class="cls-13 interactive-machine" d="M2252.97,712.29s1.97,1.24,3.2,4.11c.56,1.32.97,2.98.97,5.02,0,0,.35,6.29-3.79,8.75" id="Layer_10_1_7_3" data-parent-layer="Layer_10_1_7" />
        <line class="cls-13 interactive-machine" x1="2262.3" y1="716.18" x2="2256.41" y2="716.41" id="Layer_10_1_7_4" data-parent-layer="Layer_10_1_7" />
        <line class="cls-13 interactive-machine" x1="2262.37" y1="725.26" x2="2256.79" y2="725.26" id="Layer_10_1_7_5" data-parent-layer="Layer_10_1_7" />
        <path class="cls-13 interactive-machine" d="M2247.19,719.07l2.68.26s1.53-1.7,2.26.16c0,0,1.08,3.42-.67,4.24,0,0-.53.59-1.36-.15l-2.96.1c.77-1.62.04-4.37.04-4.37" id="Layer_10_1_7_6" data-parent-layer="Layer_10_1_7" />
        <path class="cls-13 interactive-machine" d="M2249.94,719.39s1.64,2,.11,4.14" id="Layer_10_1_7_7" data-parent-layer="Layer_10_1_7" />
        <path class="cls-13 interactive-machine" d="M2232.56,719.38s.26,3.13.15,4.4" id="Layer_10_1_7_8" data-parent-layer="Layer_10_1_7" />
        <path class="cls-1 interactive-machine" d="M2235.43,718.94s.71,2.72.02,4.97c0,0,8.04.88,11.53.04,0,0,1.09-1.93.07-4.93,0,0-5.74-.69-11.62-.07Z" id="Layer_10_1_7_9" data-parent-layer="Layer_10_1_7" />
        <ellipse class="cls-13 interactive-machine" cx="2220.52" cy="721.86" rx="3.86" ry="7.07" id="Layer_10_1_7_10" data-parent-layer="Layer_10_1_7" />
        <path class="cls-13 interactive-machine" d="M2223.37,713.05s1.6,1.11,2.71,3.62c.54,1.22.95,2.77,1.02,4.68,0,0,.4,6.61-4.03,8.99l-.29.2-.19.07" id="Layer_10_1_7_11" data-parent-layer="Layer_10_1_7" />
        <line class="cls-13 interactive-machine" x1="2231.79" y1="716.44" x2="2226.2" y2="716.53" id="Layer_10_1_7_12" data-parent-layer="Layer_10_1_7" />
        <line class="cls-13 interactive-machine" x1="2232.2" y1="725.23" x2="2226.8" y2="725.3" id="Layer_10_1_7_13" data-parent-layer="Layer_10_1_7" />
      </g>
      <g id="Layer_10_1_8" class="interactive-machine" data-parent-layer="Layer_10_1">
        <path class="cls-8 interactive-machine" d="M2278.3,782.21v-3.14s-2.75-2.5-4.37.83c0,0-.34,7.12.1,8.44,0,0,.25,1.77,2.01,2.5,0,0,1.91.29,2.16-1.96l-.1-2.16s1.57.29,1.86-.74c0,0,5.94,1.57,12.42.1,0,0,.65,1.08,1.93.66l.04,3.5s2.44,2.97,4.81-.39l-.18-11.53s-3.29-1.24-4.56.04l-.07,3.85s-1.1-.07-2.23.78c0,0-6.93-1.27-11.84.14,0,0-.98-1.11-1.98-.93Z" id="Layer_10_1_8_1" data-parent-layer="Layer_10_1_8" />
        <path class="cls-1 interactive-machine" d="M2281.87,782.78s.74,1.77.21,3.54c0,0,5.94.74,8.7,0,0,0,.57-2.51-.18-3.5,0,0-2.69-1.03-8.73-.04Z" id="Layer_10_1_8_2" data-parent-layer="Layer_10_1_8" />
      </g>
      <g id="Layer_10_1_9" class="interactive-machine" data-parent-layer="Layer_10_1">
        <path class="cls-8 interactive-machine" d="M2219.69,778.6s-.23.26-.56.74c-1.32,1.93-4.23,7.37.06,13.05,0,0,1.35,2.07,3.85,2.33l6.37-.41s3.41-2.39,3.77-6.57c0,0,7.44.82,9.12.66,0,0,4.13,0,5.65-.51,0,0,.51,5.6,3.97,6.37l7.23.1s2.8-.82,3.92-4.89c0,0,2.09-4.97-.87-10.75,0,0-1.17-2.78-4.79-2.27l-4.69-.05s-2.55-.41-4.02,3.36l-1.07,3.41s-7.34-1.12-14.62.31c0,0-.1-4.23-3.41-6.22l-7.18-.2s-1.74.06-2.74,1.53Z" id="Layer_10_1_9_1" data-parent-layer="Layer_10_1_9" />
        <path class="cls-13 interactive-machine" d="M2253.41,779.1s4.25,4.79.2,12.83" id="Layer_10_1_9_2" data-parent-layer="Layer_10_1_9" />
        <path class="cls-13 interactive-machine" d="M2253.44,776.4s1.97,1.24,3.2,4.11c.56,1.32.97,2.98.97,5.02,0,0,.35,6.29-3.79,8.75" id="Layer_10_1_9_3" data-parent-layer="Layer_10_1_9" />
        <line class="cls-13 interactive-machine" x1="2262.76" y1="780.29" x2="2256.88" y2="780.52" id="Layer_10_1_9_4" data-parent-layer="Layer_10_1_9" />
        <line class="cls-13 interactive-machine" x1="2262.84" y1="789.37" x2="2257.26" y2="789.37" id="Layer_10_1_9_5" data-parent-layer="Layer_10_1_9" />
        <path class="cls-13 interactive-machine" d="M2247.65,783.18l2.68.26s1.53-1.7,2.26.16c0,0,1.08,3.42-.67,4.24,0,0-.53.59-1.36-.15l-2.96.1c.77-1.62.04-4.37.04-4.37" id="Layer_10_1_9_6" data-parent-layer="Layer_10_1_9" />
        <path class="cls-13 interactive-machine" d="M2250.41,783.5s1.64,2,.11,4.14" id="Layer_10_1_9_7" data-parent-layer="Layer_10_1_9" />
        <path class="cls-13 interactive-machine" d="M2233.03,783.49s.26,3.13.15,4.4" id="Layer_10_1_9_8" data-parent-layer="Layer_10_1_9" />
        <path class="cls-1 interactive-machine" d="M2235.89,783.05s.71,2.72.02,4.97c0,0,8.04.88,11.53.04,0,0,1.09-1.93.07-4.93,0,0-5.74-.69-11.62-.07Z" id="Layer_10_1_9_9" data-parent-layer="Layer_10_1_9" />
        <ellipse class="cls-13 interactive-machine" cx="2220.98" cy="785.97" rx="3.86" ry="7.07" id="Layer_10_1_9_10" data-parent-layer="Layer_10_1_9" />
        <path class="cls-13 interactive-machine" d="M2223.83,777.16s1.6,1.11,2.71,3.62c.54,1.22.95,2.77,1.02,4.68,0,0,.4,6.61-4.03,8.99l-.29.2-.19.07" id="Layer_10_1_9_11" data-parent-layer="Layer_10_1_9" />
        <line class="cls-13 interactive-machine" x1="2232.26" y1="780.55" x2="2226.67" y2="780.64" id="Layer_10_1_9_12" data-parent-layer="Layer_10_1_9" />
        <line class="cls-13 interactive-machine" x1="2232.66" y1="789.34" x2="2227.27" y2="789.41" id="Layer_10_1_9_13" data-parent-layer="Layer_10_1_9" />
      </g>
      <g id="Layer_10_1_10" class="interactive-machine" data-parent-layer="Layer_10_1">
        <path class="cls-8 interactive-machine" d="M2278.3,814.26v-3.14s-2.75-2.5-4.37.83c0,0-.34,7.12.1,8.44,0,0,.25,1.77,2.01,2.5,0,0,1.91.29,2.16-1.96l-.1-2.16s1.57.29,1.86-.74c0,0,5.94,1.57,12.42.1,0,0,.65,1.08,1.93.66l.04,3.5s2.44,2.97,4.81-.39l-.18-11.53s-3.29-1.24-4.56.04l-.07,3.85s-1.1-.07-2.23.78c0,0-6.93-1.27-11.84.14,0,0-.98-1.11-1.98-.93Z" id="Layer_10_1_10_1" data-parent-layer="Layer_10_1_10" />
        <path class="cls-1 interactive-machine" d="M2281.87,814.83s.74,1.77.21,3.54c0,0,5.94.74,8.7,0,0,0,.57-2.51-.18-3.5,0,0-2.69-1.03-8.73-.04Z" id="Layer_10_1_10_2" data-parent-layer="Layer_10_1_10" />
      </g>
      <g id="Layer_10_1_11" class="interactive-machine" data-parent-layer="Layer_10_1">
        <path class="cls-8 interactive-machine" d="M2219.69,810.65s-.23.26-.56.74c-1.32,1.93-4.23,7.37.06,13.05,0,0,1.35,2.07,3.85,2.33l6.37-.41s3.41-2.39,3.77-6.57c0,0,7.44.82,9.12.66,0,0,4.13,0,5.65-.51,0,0,.51,5.6,3.97,6.37l7.23.1s2.8-.82,3.92-4.89c0,0,2.09-4.97-.87-10.75,0,0-1.17-2.78-4.79-2.27l-4.69-.05s-2.55-.41-4.02,3.36l-1.07,3.41s-7.34-1.12-14.62.31c0,0-.1-4.23-3.41-6.22l-7.18-.2s-1.74.06-2.74,1.53Z" id="Layer_10_1_11_1" data-parent-layer="Layer_10_1_11" />
        <path class="cls-13 interactive-machine" d="M2253.4,811.15s4.25,4.79.2,12.83" id="Layer_10_1_11_2" data-parent-layer="Layer_10_1_11" />
        <path class="cls-13 interactive-machine" d="M2253.43,808.45s1.97,1.24,3.2,4.11c.56,1.32.97,2.98.97,5.02,0,0,.35,6.29-3.79,8.75" id="Layer_10_1_11_3" data-parent-layer="Layer_10_1_11" />
        <line class="cls-13 interactive-machine" x1="2262.76" y1="812.34" x2="2256.87" y2="812.57" id="Layer_10_1_11_4" data-parent-layer="Layer_10_1_11" />
        <line class="cls-13 interactive-machine" x1="2262.83" y1="821.42" x2="2257.25" y2="821.42" id="Layer_10_1_11_5" data-parent-layer="Layer_10_1_11" />
        <path class="cls-13 interactive-machine" d="M2247.65,815.23l2.68.26s1.53-1.7,2.26.16c0,0,1.08,3.42-.67,4.24,0,0-.53.59-1.36-.15l-2.96.1c.77-1.62.04-4.37.04-4.37" id="Layer_10_1_11_6" data-parent-layer="Layer_10_1_11" />
        <path class="cls-13 interactive-machine" d="M2250.4,815.55s1.64,2,.11,4.14" id="Layer_10_1_11_7" data-parent-layer="Layer_10_1_11" />
        <path class="cls-13 interactive-machine" d="M2233.02,815.54s.26,3.13.15,4.4" id="Layer_10_1_11_8" data-parent-layer="Layer_10_1_11" />
        <path class="cls-1 interactive-machine" d="M2235.89,815.1s.71,2.72.02,4.97c0,0,8.04.88,11.53.04,0,0,1.09-1.93.07-4.93,0,0-5.74-.69-11.62-.07Z" id="Layer_10_1_11_9" data-parent-layer="Layer_10_1_11" />
        <ellipse class="cls-13 interactive-machine" cx="2220.98" cy="818.02" rx="3.86" ry="7.07" id="Layer_10_1_11_10" data-parent-layer="Layer_10_1_11" />
        <path class="cls-13 interactive-machine" d="M2223.83,809.21s1.6,1.11,2.71,3.62c.54,1.22.95,2.77,1.02,4.68,0,0,.4,6.61-4.03,8.99l-.29.2-.19.07" id="Layer_10_1_11_11" data-parent-layer="Layer_10_1_11" />
        <line class="cls-13 interactive-machine" x1="2232.25" y1="812.6" x2="2226.66" y2="812.69" id="Layer_10_1_11_12" data-parent-layer="Layer_10_1_11" />
        <line class="cls-13 interactive-machine" x1="2232.66" y1="821.39" x2="2227.26" y2="821.46" id="Layer_10_1_11_13" data-parent-layer="Layer_10_1_11" />
      </g>
      <g id="Layer_10_1_12" class="interactive-machine" data-parent-layer="Layer_10_1">
        <path class="cls-8 interactive-machine" d="M2278.03,750.6v-3.14s-2.75-2.5-4.37.83c0,0-.34,7.12.1,8.44,0,0,.25,1.77,2.01,2.5,0,0,1.91.29,2.16-1.96l-.1-2.16s1.57.29,1.86-.74c0,0,5.94,1.57,12.42.1,0,0,.65,1.08,1.93.66l.04,3.5s2.44,2.97,4.81-.39l-.18-11.53s-3.29-1.24-4.56.04l-.07,3.85s-1.1-.07-2.23.78c0,0-6.93-1.27-11.84.14,0,0-.98-1.11-1.98-.93Z" id="Layer_10_1_12_1" data-parent-layer="Layer_10_1_12" />
        <path class="cls-1 interactive-machine" d="M2281.6,751.17s.74,1.77.21,3.54c0,0,5.94.74,8.7,0,0,0,.57-2.51-.18-3.5,0,0-2.69-1.03-8.73-.04Z" id="Layer_10_1_12_2" data-parent-layer="Layer_10_1_12" />
      </g>
      <g id="Layer_10_1_13" class="interactive-machine" data-parent-layer="Layer_10_1">
        <path class="cls-8 interactive-machine" d="M2219.42,746.99s-.23.26-.56.74c-1.32,1.93-4.23,7.37.06,13.05,0,0,1.35,2.07,3.85,2.33l6.37-.41s3.41-2.39,3.77-6.57c0,0,7.44.82,9.12.66,0,0,4.13,0,5.65-.51,0,0,.51,5.6,3.97,6.37l7.23.1s2.8-.82,3.92-4.89c0,0,2.09-4.97-.87-10.75,0,0-1.17-2.78-4.79-2.27l-4.69-.05s-2.55-.41-4.02,3.36l-1.07,3.41s-7.34-1.12-14.62.31c0,0-.1-4.23-3.41-6.22l-7.18-.2s-1.74.06-2.74,1.53Z" id="Layer_10_1_13_1" data-parent-layer="Layer_10_1_13" />
        <path class="cls-13 interactive-machine" d="M2253.13,747.49s4.25,4.79.2,12.83" id="Layer_10_1_13_2" data-parent-layer="Layer_10_1_13" />
        <path class="cls-13 interactive-machine" d="M2253.16,744.79s1.97,1.24,3.2,4.11c.56,1.32.97,2.98.97,5.02,0,0,.35,6.29-3.79,8.75" id="Layer_10_1_13_3" data-parent-layer="Layer_10_1_13" />
        <line class="cls-13 interactive-machine" x1="2262.49" y1="748.68" x2="2256.6" y2="748.91" id="Layer_10_1_13_4" data-parent-layer="Layer_10_1_13" />
        <line class="cls-13 interactive-machine" x1="2262.56" y1="757.76" x2="2256.98" y2="757.76" id="Layer_10_1_13_5" data-parent-layer="Layer_10_1_13" />
        <path class="cls-13 interactive-machine" d="M2247.38,751.57l2.68.26s1.53-1.7,2.26.16c0,0,1.08,3.42-.67,4.24,0,0-.53.59-1.36-.15l-2.96.1c.77-1.62.04-4.37.04-4.37" id="Layer_10_1_13_6" data-parent-layer="Layer_10_1_13" />
        <path class="cls-13 interactive-machine" d="M2250.14,751.89s1.64,2,.11,4.14" id="Layer_10_1_13_7" data-parent-layer="Layer_10_1_13" />
        <path class="cls-13 interactive-machine" d="M2232.76,751.88s.26,3.13.15,4.4" id="Layer_10_1_13_8" data-parent-layer="Layer_10_1_13" />
        <path class="cls-1 interactive-machine" d="M2235.62,751.44s.71,2.72.02,4.97c0,0,8.04.88,11.53.04,0,0,1.09-1.93.07-4.93,0,0-5.74-.69-11.62-.07Z" id="Layer_10_1_13_9" data-parent-layer="Layer_10_1_13" />
        <ellipse class="cls-13 interactive-machine" cx="2220.71" cy="754.36" rx="3.86" ry="7.07" id="Layer_10_1_13_10" data-parent-layer="Layer_10_1_13" />
        <path class="cls-13 interactive-machine" d="M2223.56,745.55s1.6,1.11,2.71,3.62c.54,1.22.95,2.77,1.02,4.68,0,0,.4,6.61-4.03,8.99l-.29.2-.19.07" id="Layer_10_1_13_11" data-parent-layer="Layer_10_1_13" />
        <line class="cls-13 interactive-machine" x1="2231.98" y1="748.94" x2="2226.39" y2="749.03" id="Layer_10_1_13_12" data-parent-layer="Layer_10_1_13" />
        <line class="cls-13 interactive-machine" x1="2232.39" y1="757.73" x2="2226.99" y2="757.8" id="Layer_10_1_13_13" data-parent-layer="Layer_10_1_13" />
      </g>
      <g id="Layer_10_1_14" class="interactive-machine" data-parent-layer="Layer_10_1">
        <path class="cls-8 interactive-machine" d="M2278.18,670.49v-3.14s-2.75-2.5-4.37.83c0,0-.34,7.12.1,8.44,0,0,.25,1.77,2.01,2.5,0,0,1.91.29,2.16-1.96l-.1-2.16s1.57.29,1.86-.74c0,0,5.94,1.57,12.42.1,0,0,.65,1.08,1.93.66l.04,3.5s2.44,2.97,4.81-.39l-.18-11.53s-3.29-1.24-4.56.04l-.07,3.85s-1.1-.07-2.23.78c0,0-6.93-1.27-11.84.14,0,0-.98-1.11-1.98-.93Z" id="Layer_10_1_14_1" data-parent-layer="Layer_10_1_14" />
        <path class="cls-1 interactive-machine" d="M2281.75,671.06s.74,1.77.21,3.54c0,0,5.94.74,8.7,0,0,0,.57-2.51-.18-3.5,0,0-2.69-1.03-8.73-.04Z" id="Layer_10_1_14_2" data-parent-layer="Layer_10_1_14" />
      </g>
      <g id="Layer_10_1_15" class="interactive-machine" data-parent-layer="Layer_10_1">
        <path class="cls-8 interactive-machine" d="M2278.2,703.05v-3.14s-2.75-2.5-4.37.83c0,0-.34,7.12.1,8.44,0,0,.25,1.77,2.01,2.5,0,0,1.91.29,2.16-1.96l-.1-2.16s1.57.29,1.86-.74c0,0,5.94,1.57,12.42.1,0,0,.65,1.08,1.93.66l.04,3.5s2.44,2.97,4.81-.39l-.18-11.53s-3.29-1.24-4.56.04l-.07,3.85s-1.1-.07-2.23.78c0,0-6.93-1.27-11.84.14,0,0-.98-1.11-1.98-.93Z" id="Layer_10_1_15_1" data-parent-layer="Layer_10_1_15" />
        <path class="cls-1 interactive-machine" d="M2281.77,703.63s.74,1.77.21,3.54c0,0,5.94.74,8.7,0,0,0,.57-2.51-.18-3.5,0,0-2.69-1.03-8.73-.04Z" id="Layer_10_1_15_2" data-parent-layer="Layer_10_1_15" />
      </g>
      <g id="Layer_10_1_16" class="interactive-machine" data-parent-layer="Layer_10_1">
        <path class="cls-8 interactive-machine" d="M2277.97,735.34v-3.14s-2.75-2.5-4.37.83c0,0-.34,7.12.1,8.44,0,0,.25,1.77,2.01,2.5,0,0,1.91.29,2.16-1.96l-.1-2.16s1.57.29,1.86-.74c0,0,5.94,1.57,12.42.1,0,0,.65,1.08,1.93.66l.04,3.5s2.44,2.97,4.81-.39l-.18-11.53s-3.29-1.24-4.56.04l-.07,3.85s-1.1-.07-2.23.78c0,0-6.93-1.27-11.84.14,0,0-.98-1.11-1.98-.93Z" id="Layer_10_1_16_1" data-parent-layer="Layer_10_1_16" />
        <path class="cls-1 interactive-machine" d="M2281.54,735.92s.74,1.77.21,3.54c0,0,5.94.74,8.7,0,0,0,.57-2.51-.18-3.5,0,0-2.69-1.03-8.73-.04Z" id="Layer_10_1_16_2" data-parent-layer="Layer_10_1_16" />
      </g>
      <g id="Layer_10_1_17" class="interactive-machine" data-parent-layer="Layer_10_1">
        <path class="cls-8 interactive-machine" d="M2278.09,767.52v-3.14s-2.75-2.5-4.37.83c0,0-.34,7.12.1,8.44,0,0,.25,1.77,2.01,2.5,0,0,1.91.29,2.16-1.96l-.1-2.16s1.57.29,1.86-.74c0,0,5.94,1.57,12.42.1,0,0,.65,1.08,1.93.66l.04,3.5s2.44,2.97,4.81-.39l-.18-11.53s-3.29-1.24-4.56.04l-.07,3.85s-1.1-.07-2.23.78c0,0-6.93-1.27-11.84.14,0,0-.98-1.11-1.98-.93Z" id="Layer_10_1_17_1" data-parent-layer="Layer_10_1_17" />
        <path class="cls-1 interactive-machine" d="M2281.66,768.09s.74,1.77.21,3.54c0,0,5.94.74,8.7,0,0,0,.57-2.51-.18-3.5,0,0-2.69-1.03-8.73-.04Z" id="Layer_10_1_17_2" data-parent-layer="Layer_10_1_17" />
      </g>
      <g id="Layer_10_1_18" class="interactive-machine" data-parent-layer="Layer_10_1">
        <path class="cls-8 interactive-machine" d="M2277.97,799.92v-3.14s-2.75-2.5-4.37.83c0,0-.34,7.12.1,8.44,0,0,.25,1.77,2.01,2.5,0,0,1.91.29,2.16-1.96l-.1-2.16s1.57.29,1.86-.74c0,0,5.94,1.57,12.42.1,0,0,.65,1.08,1.93.66l.04,3.5s2.44,2.97,4.81-.39l-.18-11.53s-3.29-1.24-4.56.04l-.07,3.85s-1.1-.07-2.23.78c0,0-6.93-1.27-11.84.14,0,0-.98-1.11-1.98-.93Z" id="Layer_10_1_18_1" data-parent-layer="Layer_10_1_18" />
        <path class="cls-1 interactive-machine" d="M2281.54,800.5s.74,1.77.21,3.54c0,0,5.94.74,8.7,0,0,0,.57-2.51-.18-3.5,0,0-2.69-1.03-8.73-.04Z" id="Layer_10_1_18_2" data-parent-layer="Layer_10_1_18" />
      </g>
    </g>
  </g>
</svg>