<?xml version="1.0" encoding="UTF-8"?>
<svg xmlns="http://www.w3.org/2000/svg" xmlns:xlink="http://www.w3.org/1999/xlink" viewBox="1911.4 682.3941996964074 269.0500000000002 124.21170847747612">
  <defs xmlns="http://www.w3.org/2000/svg">
    <style>
      .cls-1, .cls-2, .cls-3, .cls-4, .cls-5, .cls-6, .cls-7, .cls-8, .cls-9, .cls-10, .cls-11, .cls-12, .cls-13, .cls-14, .cls-15 {
        stroke-miterlimit: 10;
      }

      .cls-1, .cls-2, .cls-3, .cls-6, .cls-7, .cls-8, .cls-9, .cls-10, .cls-11, .cls-12, .cls-13, .cls-14, .cls-15 {
        stroke: #000;
      }

      .cls-1, .cls-3, .cls-5, .cls-6, .cls-8, .cls-13 {
        stroke-width: 2px;
      }

      .cls-2, .cls-6, .cls-11, .cls-12 {
        fill: #fcfcfc;
      }

      .cls-3 {
        fill: #fdfefe;
      }

      .cls-4, .cls-5 {
        stroke: #00ff30;
      }

      .cls-4, .cls-5, .cls-10, .cls-13, .cls-14, .cls-15 {
        fill: none;
      }

      .cls-7, .cls-8, .cls-9 {
        fill: #fff;
      }

      .cls-9 {
        stroke-width: .75px;
      }

      .cls-11 {
        stroke-width: 5px;
      }

      .cls-12, .cls-15 {
        stroke-width: 3px;
      }

      .cls-14 {
        stroke-width: 4px;
      }
    </style>
  </defs>
  <g xmlns="http://www.w3.org/2000/svg">
      <path class="cls-3" d="M1934.92,689.41s6.46-4.42,12.75-.17l.45,110.58s-7.91,4.23-13.38-.33l.19-110.08Z"/>
      <path class="cls-3" d="M1916.4,718.83l.13,49.11,184.45,1.7s55.58-6.76,58.73-6.44l.16-39.15s-55.82-6.45-58.33-4.87l-185.13-.34Z"/>
      <path class="cls-3" d="M2159.48,726.58s5.66-.61,5.92,3.57l.48,29.64s-1.72,1.94-6.15.34"/>
      <path class="cls-3" d="M2165.16,728.72s4.95-.55,5.18,3.21l.42,26.64s-1.5,1.75-5.38.3"/>
      <path class="cls-3" d="M2170.26,731.14s4.59-.48,4.8,2.82l.39,23.4s-1.39,1.54-4.98.26"/>
      <line class="cls-14" x1="2099.32" y1="720.16" x2="2099.32" y2="768.25"/>
      <path class="cls-3" d="M1934.17,710.95c-15.33,1.21-14.77-7.95-14.77-7.95,0-10.44,14.84-6.81,14.84-6.81l-.07,14.77Z"/>
      <line class="cls-3" x1="1927.78" y1="696.36" x2="1927.35" y2="709.9"/>
      <path class="cls-3" d="M1933.52,794.35c-15.33,1.21-14.77-7.95-14.77-7.95,0-10.44,14.84-6.81,14.84-6.81l-.07,14.77Z"/>
      <line class="cls-3" x1="1927.12" y1="779.76" x2="1926.7" y2="793.31"/>
    </g>
</svg>