<?xml version="1.0" encoding="UTF-8"?>
<svg xmlns="http://www.w3.org/2000/svg" xmlns:xlink="http://www.w3.org/1999/xlink" viewBox="923.1096951719212 1204.1191366431974 373.10438794595643 243.5503823083443">
  <defs xmlns="http://www.w3.org/2000/svg">
    <style>
      .cls-1, .cls-2, .cls-3, .cls-4, .cls-5, .cls-6, .cls-7, .cls-8, .cls-9, .cls-10, .cls-11, .cls-12, .cls-13, .cls-14, .cls-15 {
        stroke-miterlimit: 10;
      }

      .cls-1, .cls-2, .cls-3, .cls-6, .cls-7, .cls-8, .cls-9, .cls-10, .cls-11, .cls-12, .cls-13, .cls-14, .cls-15 {
        stroke: #000;
      }

      .cls-1, .cls-3, .cls-5, .cls-6, .cls-8, .cls-13 {
        stroke-width: 2px;
      }

      .cls-2, .cls-6, .cls-11, .cls-12 {
        fill: #fcfcfc;
      }

      .cls-3 {
        fill: #fdfefe;
      }

      .cls-4, .cls-5 {
        stroke: #00ff30;
      }

      .cls-4, .cls-5, .cls-10, .cls-13, .cls-14, .cls-15 {
        fill: none;
      }

      .cls-7, .cls-8, .cls-9 {
        fill: #fff;
      }

      .cls-9 {
        stroke-width: .75px;
      }

      .cls-11 {
        stroke-width: 5px;
      }

      .cls-12, .cls-15 {
        stroke-width: 3px;
      }

      .cls-14 {
        stroke-width: 4px;
      }
    </style>
  </defs>
  <g xmlns="http://www.w3.org/2000/svg">
      <path class="cls-10" d="M1092.08,1389.33s14.26-1.52,16.73.38"/>
      <path class="cls-6" d="M1291.14,1391.96c-.17-4.74-3.74-4.94-3.74-4.94l-32.91.11.35-30.78c.08-2.53-.75-3.36-.75-3.36-2.37-3.36-6.53.12-6.53.12-3.24-3.92-7.67.47-7.67.47-4.51-4.71-7.18,1.11-7.18,1.11l-.25,29.44h-3.94c-3.09-.07-3.62,2.04-3.62,2.04l-4.58.04-.37-6.53c-3.91-10.77-8.98.41-8.98.41l-.36,8.52-2.06.16-77.09.31c.15-.36.32-.79.52-1.32,2.03-5.36,4.62-45.11,4.62-45.11.55-6.1-3.25-47.89-3.25-47.89-3.97-6.24-15.24-5.59-15.24-5.59v-6.88c4.53,1.13,11.03-.54,11.03-.54,10.91-3.4,13.86-9.92,13.86-9.92,7.48-13.4-6.54-19.42-6.54-19.42-6.65-1.25-8.52-3.95-8.52-3.95-1.14-.73-5.82-11.84-5.82-11.84-1.04-3.53-4.35-5.82-4.35-5.82l.03-10.75c-.03-6.89-1.51-7.99-1.51-7.99-6.04-6.48-13.08-.23-13.08-.23-2.7,1-1.14,19.26-1.14,19.26-3.61.47-7.22,11.29-7.22,11.29-2.21,7.8-6.4,8.38-6.4,8.38-21.07,4.89-11.53,21.07-11.53,21.07,6.99,13.62,24.57,10.59,24.57,10.59l.12,6.38-.99.05c-6.58.52-13.16,4.39-13.16,4.39-3.48,2.97-4.39,44.26-4.39,44.26-1.68,3.48,4.52,50.97,4.52,50.97l-78.67.23v-9.43c-4.57-8.7-8.92-.22-8.92-.22l-.22,7.03-5.51.15c-.15-2.18-1.9-2.17-1.9-2.17l-5.57-.15-.07-30.74c-3.19-3.34-7.65.07-7.65.07-3.79-3.42-7.13.22-7.13.22-3.27-4.01-7.05.3-7.05.3l-.07,33.48-33.56-.15c-6.98,6.16-.22,11.58-.22,11.58l33.71.19.05,32.26c2.08,6.25,6.89,1.92,6.89,1.92,3.1,4.22,7.96-.27,7.96-.27,3.2,4.43,7.12-.34,7.12-.34l-.06-30.32,3.95.1c2.86,1.97,4.05-1.09,4.05-1.09l2.37-.2.06,4.78-1.46,25.81c1.24,8.31,6.61,7.94,6.61,7.94,7.76,1.15,8.68-6.8,8.68-6.8.62-5.96,4.52-5.76,4.52-5.76l17.51-.51c4.05,1.88,11.94,7.53,11.94,7.53l130.87-.25c8.28-6.55,11.1-6.85,11.1-6.85h17.46c4.55,1.1,5.51,9.73,5.51,9.73,10.76,8.25,14.22-2.75,14.22-2.75l-1.67-32.5,2.66.29c2.2,1.69,7.22.31,7.22.31l.26,25.87c-.27,3.31.4,4.51.4,4.51,3.31,5.14,7.51.13,7.51.13,4.38,4.65,7.11-.22,7.11-.22,5.05,5.68,6.85-1.56,6.85-1.56l.38-31.8,33.51-.09c3.63-1.39,2.79-6.81,2.79-6.81ZM1190.51,1408.81c-3.55,3.83-8.38,4.4-8.38,4.4l-47.86.28v1.99c-.14,2.98-1.56,3.12-1.56,3.12l-40.76.28c-6.39.57-5.96-1.42-5.96-1.42v-3.98l-44.88.14c-6.11.28-8.8-2.41-8.8-2.41l-16.19-13.63,188.45-.85-14.06,12.07Z"/>
      <polygon class="cls-12" points="1009.39 1396.42 1211.36 1396.7 1210.83 1388.65 1009.16 1388.74 1009.39 1396.42"/>
      <line class="cls-2" x1="972.09" y1="1354.01" x2="972.02" y2="1432.63"/>
      <line class="cls-2" x1="979.29" y1="1353.69" x2="979.54" y2="1432.36"/>
      <line class="cls-2" x1="965.04" y1="1387.07" x2="964.99" y2="1398.92"/>
      <line class="cls-2" x1="987.04" y1="1383.95" x2="986.95" y2="1402.17"/>
      <path class="cls-2" d="M994.51,1386.27s1.81,8.18.47,14.8"/>
      <path class="cls-2" d="M997.42,1404.32s2.4.96,2.55-5.81l.27-19.42s3.98-8.54,8.92.22l-.1,24.54s-.45,10.07,7.66,9.17"/>
      <path class="cls-15" d="M1093.52,1434.24l-.11,6.67s.16,1.91,3.61,1.75l27.55-.22s1.86,0,2.41-2.3l-.16-5.96"/>
      <path class="cls-15" d="M1005.65,1421.07s5.65,6.01,7.07,6.08l.69.79"/>
      <path class="cls-6" d="M1214.82,1420.98s-2.78,1.8-3.23,3.17c0,0-3.04,2.88-4.51,3.3l-.62.69"/>
      <path class="cls-2" d="M1088.34,1389.05s1.24,3.38,6.34,3.03l33.71-.14s2.14-1.03,3.31-3.17"/>
      <path class="cls-2" d="M1090.15,1392.71s38.66-.65,39.66-.35l.91,26.64-41.6.64,1.03-26.93Z"/>
      <line class="cls-12" x1="1086.18" y1="1396.69" x2="1086.17" y2="1413.48"/>
      <line class="cls-12" x1="1133.86" y1="1396.71" x2="1134.48" y2="1413.67"/>
      <path class="cls-2" d="M1211.36,1396.7s.76,11.93-1.84,14.42c0,0-.98,2.17-5.86,1.95"/>
      <path class="cls-2" d="M1220.54,1386.25s-1.32,16.01,1.98,19.25"/>
      <path class="cls-2" d="M1225.12,1386.21s-.33,12.95.36,15.47"/>
      <line class="cls-2" x1="1232.7" y1="1383.99" x2="1232.54" y2="1401.95"/>
      <line class="cls-2" x1="1240.09" y1="1354.07" x2="1240.72" y2="1432.48"/>
      <line class="cls-2" x1="1247.75" y1="1353.54" x2="1247.85" y2="1431.76"/>
      <line class="cls-2" x1="1254.73" y1="1387.4" x2="1255.05" y2="1398.9"/>
    </g>
</svg>