<?xml version="1.0" encoding="UTF-8"?>
<svg xmlns="http://www.w3.org/2000/svg" xmlns:xlink="http://www.w3.org/1999/xlink" viewBox="1531.1799999999998 227.26000000000005 127.50000000000045 354.99000000000007">
  <defs xmlns="http://www.w3.org/2000/svg">
    <style>
      .cls-1, .cls-2, .cls-3, .cls-4, .cls-5, .cls-6, .cls-7, .cls-8, .cls-9, .cls-10, .cls-11, .cls-12, .cls-13, .cls-14, .cls-15 {
        stroke-miterlimit: 10;
      }

      .cls-1, .cls-2, .cls-3, .cls-6, .cls-7, .cls-8, .cls-9, .cls-10, .cls-11, .cls-12, .cls-13, .cls-14, .cls-15 {
        stroke: #000;
      }

      .cls-1, .cls-3, .cls-5, .cls-6, .cls-8, .cls-13 {
        stroke-width: 2px;
      }

      .cls-2, .cls-6, .cls-11, .cls-12 {
        fill: #fcfcfc;
      }

      .cls-3 {
        fill: #fdfefe;
      }

      .cls-4, .cls-5 {
        stroke: #00ff30;
      }

      .cls-4, .cls-5, .cls-10, .cls-13, .cls-14, .cls-15 {
        fill: none;
      }

      .cls-7, .cls-8, .cls-9 {
        fill: #fff;
      }

      .cls-9 {
        stroke-width: .75px;
      }

      .cls-11 {
        stroke-width: 5px;
      }

      .cls-12, .cls-15 {
        stroke-width: 3px;
      }

      .cls-14 {
        stroke-width: 4px;
      }
    </style>
  </defs>
  <g xmlns="http://www.w3.org/2000/svg">
      <path class="cls-8" d="M1548.19,547.52s-12.3-1.33-11.97-10.64v-17.62s2.33-5.15,12.8-7.98l-.73-139.03-.75-25.55s.19-3.22,6.07-4.74c0,0,11.89-4.79,13.31-6.29,0,0-.89-1.14-.72-3.07v-4.57h-22.83s-7.19-1.17-7.19-8.35l.2-15.85s1.97-5.71,9.16-6.2l20.48-.2v-17.43s2.86-13.09,15.06-12.9l29.47.29s11.97.46,13.18,12.47l-.02,17.66,8.51-.33-.16-13.11s-2.22-.81-1.73-4.95l-.08-43.02s.63-3.69,4.32-3.85l5.18.08s2.9-.31,3.14,3.45l.66,45.72s-.22,2.31-2.49,3.1l.14,14.21,5.05-.14s7.39.49,7.43,6.82v16.57s-.9,8.35-11.4,8.75l-1.17.04-.19,62.61s-2.84,16.18-3.27,17.46c0,0,.85,2.98.85,6.25l.43,66.72s-.28,5.25-4.54,4.97l-9.65.14-.14,20.58s2.39,4.69,7.36,4.5l13.53.13s7.62.69,7.99,7.43l-.11,16.87s-.6,6.31-8.12,6.65l-15.38.43s-5.7-.4-5.9,5.77c0,0-.84,9.68-14.48,10.69l-19.73.23v7.33s.95,7.38-6.73,7.63l-26.96-.08s-7.16-.12-7.12-8.42v-21.28l-.73.04Z"/>
      <path class="cls-10" d="M1632.05,284.09s2.45,2.62,9,.54"/>
      <line class="cls-10" x1="1641.23" y1="299.23" x2="1641.16" y2="330.52"/>
      <line class="cls-10" x1="1566.02" y1="297.42" x2="1566.2" y2="328.02"/>
      <line class="cls-10" x1="1581.69" y1="267.48" x2="1581.93" y2="334.03"/>
      <path class="cls-10" d="M1566.34,334.32l55.75-.21s1.86.08,1.78-2.91l-.16-33.67"/>
      <line class="cls-10" x1="1607.07" y1="267.57" x2="1607.54" y2="333.52"/>
      <line class="cls-10" x1="1549.03" y1="511.28" x2="1548.93" y2="547.48"/>
      <path class="cls-10" d="M1553.52,499.79l.52,69.47s1.04,3.77,4.29,3.77l22.77-.26s5.2.78,5.46-5.72l-.39-66.22s-.26-4.03-4.55-4.29l-24.59.13s-2.6.52-3.51,3.12Z"/>
      <line class="cls-10" x1="1624.59" y1="509.61" x2="1624.82" y2="548.14"/>
      <path class="cls-10" d="M1637.65,410.94s-1.55-1.29-3.47-1.26l-25.55.15s-4.22.25-4.34,3.6l-.74,71.18s.62,4.46,4.34,4.22l16.84.2"/>
      <path class="cls-10" d="M1617.44,489.28l.08,56.69s0,7.82-5.53,8.09l-25.22.4"/>
      <path class="cls-10" d="M1632.22,297.2l.13,97.7s-.65,8.5-2.94,14.38"/>
      <line class="cls-10" x1="1623.75" y1="329.53" x2="1632.03" y2="329.53"/>
      <polygon class="cls-10" points="1570.18 334.46 1570.18 359.12 1619.52 358.95 1619.69 334.28 1570.18 334.46"/>
      <rect class="cls-10" x="1564.49" y="358.94" width="61.21" height="10.9" rx="5.45" ry="5.45"/>
      <line class="cls-10" x1="1617.41" y1="369.7" x2="1617.41" y2="409.7"/>
      <line class="cls-10" x1="1625.71" y1="367.46" x2="1625.2" y2="409.58"/>
      <line class="cls-10" x1="1619.74" y1="335" x2="1632.11" y2="342.66"/>
      <line class="cls-10" x1="1619.55" y1="347.57" x2="1632.05" y2="355.34"/>
      <path class="cls-10" d="M1570.18,334.46c-.53.37-10.63,23.49-10.63,23.49l-.1,138.57"/>
      <polyline class="cls-10" points="1563.2 349.68 1557.72 351.88 1548.5 372.93"/>
      <line class="cls-10" x1="1566.87" y1="369.84" x2="1565.98" y2="496.1"/>
      <line class="cls-10" x1="1577.04" y1="369.92" x2="1577.04" y2="496.3"/>
    </g>
</svg>