<?xml version="1.0" encoding="UTF-8"?>
<svg xmlns="http://www.w3.org/2000/svg" xmlns:xlink="http://www.w3.org/1999/xlink" viewBox="2192.31 625.88 122.53999999999996 225.88">
  <defs xmlns="http://www.w3.org/2000/svg">
    <style>
      .cls-1, .cls-2, .cls-3, .cls-4, .cls-5, .cls-6, .cls-7, .cls-8, .cls-9, .cls-10, .cls-11, .cls-12, .cls-13, .cls-14, .cls-15 {
        stroke-miterlimit: 10;
      }

      .cls-1, .cls-2, .cls-3, .cls-6, .cls-7, .cls-8, .cls-9, .cls-10, .cls-11, .cls-12, .cls-13, .cls-14, .cls-15 {
        stroke: #000;
      }

      .cls-1, .cls-3, .cls-5, .cls-6, .cls-8, .cls-13 {
        stroke-width: 2px;
      }

      .cls-2, .cls-6, .cls-11, .cls-12 {
        fill: #fcfcfc;
      }

      .cls-3 {
        fill: #fdfefe;
      }

      .cls-4, .cls-5 {
        stroke: #00ff30;
      }

      .cls-4, .cls-5, .cls-10, .cls-13, .cls-14, .cls-15 {
        fill: none;
      }

      .cls-7, .cls-8, .cls-9 {
        fill: #fff;
      }

      .cls-9 {
        stroke-width: .75px;
      }

      .cls-11 {
        stroke-width: 5px;
      }

      .cls-12, .cls-15 {
        stroke-width: 3px;
      }

      .cls-14 {
        stroke-width: 4px;
      }
    </style>
  </defs>
  <g xmlns="http://www.w3.org/2000/svg">
      <g>
        <rect class="cls-8" x="2200.06" y="642.42" width="103.77" height="193.54"/>
        <rect class="cls-13" x="2277.56" y="642.52" width="16.39" height="192.35"/>
        <rect class="cls-13" x="2211.49" y="642.65" width="56.7" height="192.22"/>
        <line class="cls-13" x1="2229.97" y1="643.15" x2="2230.09" y2="834.56"/>
        <line class="cls-13" x1="2224.53" y1="642.99" x2="2223.81" y2="835.05"/>
        <rect class="cls-8" x="2197.31" y="630.88" width="112.43" height="11.9" rx="5.95" ry="5.95"/>
        <rect class="cls-8" x="2197.42" y="834.86" width="112.43" height="11.9" rx="5.95" ry="5.95"/>
      </g>
      <g>
        <path class="cls-8" d="M2278.2,654.46v-3.14s-2.75-2.5-4.37.83c0,0-.34,7.12.1,8.44,0,0,.25,1.77,2.01,2.5,0,0,1.91.29,2.16-1.96l-.1-2.16s1.57.29,1.86-.74c0,0,5.94,1.57,12.42.1,0,0,.65,1.08,1.93.66l.04,3.5s2.44,2.97,4.81-.39l-.18-11.53s-3.29-1.24-4.56.04l-.07,3.85s-1.1-.07-2.23.78c0,0-6.93-1.27-11.84.14,0,0-.98-1.11-1.98-.93Z"/>
        <path class="cls-1" d="M2281.77,655.04s.74,1.77.21,3.54c0,0,5.94.74,8.7,0,0,0,.57-2.51-.18-3.5,0,0-2.69-1.03-8.73-.04Z"/>
      </g>
      <g>
        <path class="cls-8" d="M2219.59,650.86s-.23.26-.56.74c-1.32,1.93-4.23,7.37.06,13.05,0,0,1.35,2.07,3.85,2.33l6.37-.41s3.41-2.39,3.77-6.57c0,0,7.44.82,9.12.66,0,0,4.13,0,5.65-.51,0,0,.51,5.6,3.97,6.37l7.23.1s2.8-.82,3.92-4.89c0,0,2.09-4.97-.87-10.75,0,0-1.17-2.78-4.79-2.27l-4.69-.05s-2.55-.41-4.02,3.36l-1.07,3.41s-7.34-1.12-14.62.31c0,0-.1-4.23-3.41-6.22l-7.18-.2s-1.74.06-2.74,1.53Z"/>
        <path class="cls-13" d="M2253.3,651.35s4.25,4.79.2,12.83"/>
        <path class="cls-13" d="M2253.33,648.65s1.97,1.24,3.2,4.11c.56,1.32.97,2.98.97,5.02,0,0,.35,6.29-3.79,8.75"/>
        <line class="cls-13" x1="2262.66" y1="652.55" x2="2256.77" y2="652.77"/>
        <line class="cls-13" x1="2262.73" y1="661.62" x2="2257.15" y2="661.62"/>
        <path class="cls-13" d="M2247.55,655.44l2.68.26s1.53-1.7,2.26.16c0,0,1.08,3.42-.67,4.24,0,0-.53.59-1.36-.15l-2.96.1c.77-1.62.04-4.37.04-4.37"/>
        <path class="cls-13" d="M2250.3,655.76s1.64,2,.11,4.14"/>
        <path class="cls-13" d="M2232.92,655.74s.26,3.13.15,4.4"/>
        <path class="cls-1" d="M2235.79,655.31s.71,2.72.02,4.97c0,0,8.04.88,11.53.04,0,0,1.09-1.93.07-4.93,0,0-5.74-.69-11.62-.07Z"/>
        <ellipse class="cls-13" cx="2220.88" cy="658.22" rx="3.86" ry="7.07"/>
        <path class="cls-13" d="M2223.73,649.41s1.6,1.11,2.71,3.62c.54,1.22.95,2.77,1.02,4.68,0,0,.4,6.61-4.03,8.99l-.29.2-.19.07"/>
        <line class="cls-13" x1="2232.15" y1="652.81" x2="2226.56" y2="652.89"/>
        <line class="cls-13" x1="2232.56" y1="661.59" x2="2227.16" y2="661.66"/>
      </g>
      <g>
        <path class="cls-8" d="M2278.03,686.67v-3.14s-2.75-2.5-4.37.83c0,0-.34,7.12.1,8.44,0,0,.25,1.77,2.01,2.5,0,0,1.91.29,2.16-1.96l-.1-2.16s1.57.29,1.86-.74c0,0,5.94,1.57,12.42.1,0,0,.65,1.08,1.93.66l.04,3.5s2.44,2.97,4.81-.39l-.18-11.53s-3.29-1.24-4.56.04l-.07,3.85s-1.1-.07-2.23.78c0,0-6.93-1.27-11.84.14,0,0-.98-1.11-1.98-.93Z"/>
        <path class="cls-1" d="M2281.6,687.24s.74,1.77.21,3.54c0,0,5.94.74,8.7,0,0,0,.57-2.51-.18-3.5,0,0-2.69-1.03-8.73-.04Z"/>
      </g>
      <g>
        <path class="cls-8" d="M2219.42,683.06s-.23.26-.56.74c-1.32,1.93-4.23,7.37.06,13.05,0,0,1.35,2.07,3.85,2.33l6.37-.41s3.41-2.39,3.77-6.57c0,0,7.44.82,9.12.66,0,0,4.13,0,5.65-.51,0,0,.51,5.6,3.97,6.37l7.23.1s2.8-.82,3.92-4.89c0,0,2.09-4.97-.87-10.75,0,0-1.17-2.78-4.79-2.27l-4.69-.05s-2.55-.41-4.02,3.36l-1.07,3.41s-7.34-1.12-14.62.31c0,0-.1-4.23-3.41-6.22l-7.18-.2s-1.74.06-2.74,1.53Z"/>
        <path class="cls-13" d="M2253.13,683.56s4.25,4.79.2,12.83"/>
        <path class="cls-13" d="M2253.16,680.86s1.97,1.24,3.2,4.11c.56,1.32.97,2.98.97,5.02,0,0,.35,6.29-3.79,8.75"/>
        <line class="cls-13" x1="2262.49" y1="684.75" x2="2256.6" y2="684.98"/>
        <line class="cls-13" x1="2262.56" y1="693.83" x2="2256.98" y2="693.83"/>
        <path class="cls-13" d="M2247.38,687.64l2.68.26s1.53-1.7,2.26.16c0,0,1.08,3.42-.67,4.24,0,0-.53.59-1.36-.15l-2.96.1c.77-1.62.04-4.37.04-4.37"/>
        <path class="cls-13" d="M2250.14,687.96s1.64,2,.11,4.14"/>
        <path class="cls-13" d="M2232.76,687.95s.26,3.13.15,4.4"/>
        <path class="cls-1" d="M2235.62,687.51s.71,2.72.02,4.97c0,0,8.04.88,11.53.04,0,0,1.09-1.93.07-4.93,0,0-5.74-.69-11.62-.07Z"/>
        <ellipse class="cls-13" cx="2220.71" cy="690.43" rx="3.86" ry="7.07"/>
        <path class="cls-13" d="M2223.56,681.62s1.6,1.11,2.71,3.62c.54,1.22.95,2.77,1.02,4.68,0,0,.4,6.61-4.03,8.99l-.29.2-.19.07"/>
        <line class="cls-13" x1="2231.98" y1="685.01" x2="2226.39" y2="685.1"/>
        <line class="cls-13" x1="2232.39" y1="693.8" x2="2226.99" y2="693.87"/>
      </g>
      <g>
        <path class="cls-8" d="M2277.84,718.1v-3.14s-2.75-2.5-4.37.83c0,0-.34,7.12.1,8.44,0,0,.25,1.77,2.01,2.5,0,0,1.91.29,2.16-1.96l-.1-2.16s1.57.29,1.86-.74c0,0,5.94,1.57,12.42.1,0,0,.65,1.08,1.93.66l.04,3.5s2.44,2.97,4.81-.39l-.18-11.53s-3.29-1.24-4.56.04l-.07,3.85s-1.1-.07-2.23.78c0,0-6.93-1.27-11.84.14,0,0-.98-1.11-1.98-.93Z"/>
        <path class="cls-1" d="M2281.41,718.67s.74,1.77.21,3.54c0,0,5.94.74,8.7,0,0,0,.57-2.51-.18-3.5,0,0-2.69-1.03-8.73-.04Z"/>
      </g>
      <g>
        <path class="cls-8" d="M2219.23,714.49s-.23.26-.56.74c-1.32,1.93-4.23,7.37.06,13.05,0,0,1.35,2.07,3.85,2.33l6.37-.41s3.41-2.39,3.77-6.57c0,0,7.44.82,9.12.66,0,0,4.13,0,5.65-.51,0,0,.51,5.6,3.97,6.37l7.23.1s2.8-.82,3.92-4.89c0,0,2.09-4.97-.87-10.75,0,0-1.17-2.78-4.79-2.27l-4.69-.05s-2.55-.41-4.02,3.36l-1.07,3.41s-7.34-1.12-14.62.31c0,0-.1-4.23-3.41-6.22l-7.18-.2s-1.74.06-2.74,1.53Z"/>
        <path class="cls-13" d="M2252.94,714.99s4.25,4.79.2,12.83"/>
        <path class="cls-13" d="M2252.97,712.29s1.97,1.24,3.2,4.11c.56,1.32.97,2.98.97,5.02,0,0,.35,6.29-3.79,8.75"/>
        <line class="cls-13" x1="2262.3" y1="716.18" x2="2256.41" y2="716.41"/>
        <line class="cls-13" x1="2262.37" y1="725.26" x2="2256.79" y2="725.26"/>
        <path class="cls-13" d="M2247.19,719.07l2.68.26s1.53-1.7,2.26.16c0,0,1.08,3.42-.67,4.24,0,0-.53.59-1.36-.15l-2.96.1c.77-1.62.04-4.37.04-4.37"/>
        <path class="cls-13" d="M2249.94,719.39s1.64,2,.11,4.14"/>
        <path class="cls-13" d="M2232.56,719.38s.26,3.13.15,4.4"/>
        <path class="cls-1" d="M2235.43,718.94s.71,2.72.02,4.97c0,0,8.04.88,11.53.04,0,0,1.09-1.93.07-4.93,0,0-5.74-.69-11.62-.07Z"/>
        <ellipse class="cls-13" cx="2220.52" cy="721.86" rx="3.86" ry="7.07"/>
        <path class="cls-13" d="M2223.37,713.05s1.6,1.11,2.71,3.62c.54,1.22.95,2.77,1.02,4.68,0,0,.4,6.61-4.03,8.99l-.29.2-.19.07"/>
        <line class="cls-13" x1="2231.79" y1="716.44" x2="2226.2" y2="716.53"/>
        <line class="cls-13" x1="2232.2" y1="725.23" x2="2226.8" y2="725.3"/>
      </g>
      <g>
        <path class="cls-8" d="M2278.3,782.21v-3.14s-2.75-2.5-4.37.83c0,0-.34,7.12.1,8.44,0,0,.25,1.77,2.01,2.5,0,0,1.91.29,2.16-1.96l-.1-2.16s1.57.29,1.86-.74c0,0,5.94,1.57,12.42.1,0,0,.65,1.08,1.93.66l.04,3.5s2.44,2.97,4.81-.39l-.18-11.53s-3.29-1.24-4.56.04l-.07,3.85s-1.1-.07-2.23.78c0,0-6.93-1.27-11.84.14,0,0-.98-1.11-1.98-.93Z"/>
        <path class="cls-1" d="M2281.87,782.78s.74,1.77.21,3.54c0,0,5.94.74,8.7,0,0,0,.57-2.51-.18-3.5,0,0-2.69-1.03-8.73-.04Z"/>
      </g>
      <g>
        <path class="cls-8" d="M2219.69,778.6s-.23.26-.56.74c-1.32,1.93-4.23,7.37.06,13.05,0,0,1.35,2.07,3.85,2.33l6.37-.41s3.41-2.39,3.77-6.57c0,0,7.44.82,9.12.66,0,0,4.13,0,5.65-.51,0,0,.51,5.6,3.97,6.37l7.23.1s2.8-.82,3.92-4.89c0,0,2.09-4.97-.87-10.75,0,0-1.17-2.78-4.79-2.27l-4.69-.05s-2.55-.41-4.02,3.36l-1.07,3.41s-7.34-1.12-14.62.31c0,0-.1-4.23-3.41-6.22l-7.18-.2s-1.74.06-2.74,1.53Z"/>
        <path class="cls-13" d="M2253.41,779.1s4.25,4.79.2,12.83"/>
        <path class="cls-13" d="M2253.44,776.4s1.97,1.24,3.2,4.11c.56,1.32.97,2.98.97,5.02,0,0,.35,6.29-3.79,8.75"/>
        <line class="cls-13" x1="2262.76" y1="780.29" x2="2256.88" y2="780.52"/>
        <line class="cls-13" x1="2262.84" y1="789.37" x2="2257.26" y2="789.37"/>
        <path class="cls-13" d="M2247.65,783.18l2.68.26s1.53-1.7,2.26.16c0,0,1.08,3.42-.67,4.24,0,0-.53.59-1.36-.15l-2.96.1c.77-1.62.04-4.37.04-4.37"/>
        <path class="cls-13" d="M2250.41,783.5s1.64,2,.11,4.14"/>
        <path class="cls-13" d="M2233.03,783.49s.26,3.13.15,4.4"/>
        <path class="cls-1" d="M2235.89,783.05s.71,2.72.02,4.97c0,0,8.04.88,11.53.04,0,0,1.09-1.93.07-4.93,0,0-5.74-.69-11.62-.07Z"/>
        <ellipse class="cls-13" cx="2220.98" cy="785.97" rx="3.86" ry="7.07"/>
        <path class="cls-13" d="M2223.83,777.16s1.6,1.11,2.71,3.62c.54,1.22.95,2.77,1.02,4.68,0,0,.4,6.61-4.03,8.99l-.29.2-.19.07"/>
        <line class="cls-13" x1="2232.26" y1="780.55" x2="2226.67" y2="780.64"/>
        <line class="cls-13" x1="2232.66" y1="789.34" x2="2227.27" y2="789.41"/>
      </g>
      <g>
        <path class="cls-8" d="M2278.3,814.26v-3.14s-2.75-2.5-4.37.83c0,0-.34,7.12.1,8.44,0,0,.25,1.77,2.01,2.5,0,0,1.91.29,2.16-1.96l-.1-2.16s1.57.29,1.86-.74c0,0,5.94,1.57,12.42.1,0,0,.65,1.08,1.93.66l.04,3.5s2.44,2.97,4.81-.39l-.18-11.53s-3.29-1.24-4.56.04l-.07,3.85s-1.1-.07-2.23.78c0,0-6.93-1.27-11.84.14,0,0-.98-1.11-1.98-.93Z"/>
        <path class="cls-1" d="M2281.87,814.83s.74,1.77.21,3.54c0,0,5.94.74,8.7,0,0,0,.57-2.51-.18-3.5,0,0-2.69-1.03-8.73-.04Z"/>
      </g>
      <g>
        <path class="cls-8" d="M2219.69,810.65s-.23.26-.56.74c-1.32,1.93-4.23,7.37.06,13.05,0,0,1.35,2.07,3.85,2.33l6.37-.41s3.41-2.39,3.77-6.57c0,0,7.44.82,9.12.66,0,0,4.13,0,5.65-.51,0,0,.51,5.6,3.97,6.37l7.23.1s2.8-.82,3.92-4.89c0,0,2.09-4.97-.87-10.75,0,0-1.17-2.78-4.79-2.27l-4.69-.05s-2.55-.41-4.02,3.36l-1.07,3.41s-7.34-1.12-14.62.31c0,0-.1-4.23-3.41-6.22l-7.18-.2s-1.74.06-2.74,1.53Z"/>
        <path class="cls-13" d="M2253.4,811.15s4.25,4.79.2,12.83"/>
        <path class="cls-13" d="M2253.43,808.45s1.97,1.24,3.2,4.11c.56,1.32.97,2.98.97,5.02,0,0,.35,6.29-3.79,8.75"/>
        <line class="cls-13" x1="2262.76" y1="812.34" x2="2256.87" y2="812.57"/>
        <line class="cls-13" x1="2262.83" y1="821.42" x2="2257.25" y2="821.42"/>
        <path class="cls-13" d="M2247.65,815.23l2.68.26s1.53-1.7,2.26.16c0,0,1.08,3.42-.67,4.24,0,0-.53.59-1.36-.15l-2.96.1c.77-1.62.04-4.37.04-4.37"/>
        <path class="cls-13" d="M2250.4,815.55s1.64,2,.11,4.14"/>
        <path class="cls-13" d="M2233.02,815.54s.26,3.13.15,4.4"/>
        <path class="cls-1" d="M2235.89,815.1s.71,2.72.02,4.97c0,0,8.04.88,11.53.04,0,0,1.09-1.93.07-4.93,0,0-5.74-.69-11.62-.07Z"/>
        <ellipse class="cls-13" cx="2220.98" cy="818.02" rx="3.86" ry="7.07"/>
        <path class="cls-13" d="M2223.83,809.21s1.6,1.11,2.71,3.62c.54,1.22.95,2.77,1.02,4.68,0,0,.4,6.61-4.03,8.99l-.29.2-.19.07"/>
        <line class="cls-13" x1="2232.25" y1="812.6" x2="2226.66" y2="812.69"/>
        <line class="cls-13" x1="2232.66" y1="821.39" x2="2227.26" y2="821.46"/>
      </g>
      <g>
        <path class="cls-8" d="M2278.03,750.6v-3.14s-2.75-2.5-4.37.83c0,0-.34,7.12.1,8.44,0,0,.25,1.77,2.01,2.5,0,0,1.91.29,2.16-1.96l-.1-2.16s1.57.29,1.86-.74c0,0,5.94,1.57,12.42.1,0,0,.65,1.08,1.93.66l.04,3.5s2.44,2.97,4.81-.39l-.18-11.53s-3.29-1.24-4.56.04l-.07,3.85s-1.1-.07-2.23.78c0,0-6.93-1.27-11.84.14,0,0-.98-1.11-1.98-.93Z"/>
        <path class="cls-1" d="M2281.6,751.17s.74,1.77.21,3.54c0,0,5.94.74,8.7,0,0,0,.57-2.51-.18-3.5,0,0-2.69-1.03-8.73-.04Z"/>
      </g>
      <g>
        <path class="cls-8" d="M2219.42,746.99s-.23.26-.56.74c-1.32,1.93-4.23,7.37.06,13.05,0,0,1.35,2.07,3.85,2.33l6.37-.41s3.41-2.39,3.77-6.57c0,0,7.44.82,9.12.66,0,0,4.13,0,5.65-.51,0,0,.51,5.6,3.97,6.37l7.23.1s2.8-.82,3.92-4.89c0,0,2.09-4.97-.87-10.75,0,0-1.17-2.78-4.79-2.27l-4.69-.05s-2.55-.41-4.02,3.36l-1.07,3.41s-7.34-1.12-14.62.31c0,0-.1-4.23-3.41-6.22l-7.18-.2s-1.74.06-2.74,1.53Z"/>
        <path class="cls-13" d="M2253.13,747.49s4.25,4.79.2,12.83"/>
        <path class="cls-13" d="M2253.16,744.79s1.97,1.24,3.2,4.11c.56,1.32.97,2.98.97,5.02,0,0,.35,6.29-3.79,8.75"/>
        <line class="cls-13" x1="2262.49" y1="748.68" x2="2256.6" y2="748.91"/>
        <line class="cls-13" x1="2262.56" y1="757.76" x2="2256.98" y2="757.76"/>
        <path class="cls-13" d="M2247.38,751.57l2.68.26s1.53-1.7,2.26.16c0,0,1.08,3.42-.67,4.24,0,0-.53.59-1.36-.15l-2.96.1c.77-1.62.04-4.37.04-4.37"/>
        <path class="cls-13" d="M2250.14,751.89s1.64,2,.11,4.14"/>
        <path class="cls-13" d="M2232.76,751.88s.26,3.13.15,4.4"/>
        <path class="cls-1" d="M2235.62,751.44s.71,2.72.02,4.97c0,0,8.04.88,11.53.04,0,0,1.09-1.93.07-4.93,0,0-5.74-.69-11.62-.07Z"/>
        <ellipse class="cls-13" cx="2220.71" cy="754.36" rx="3.86" ry="7.07"/>
        <path class="cls-13" d="M2223.56,745.55s1.6,1.11,2.71,3.62c.54,1.22.95,2.77,1.02,4.68,0,0,.4,6.61-4.03,8.99l-.29.2-.19.07"/>
        <line class="cls-13" x1="2231.98" y1="748.94" x2="2226.39" y2="749.03"/>
        <line class="cls-13" x1="2232.39" y1="757.73" x2="2226.99" y2="757.8"/>
      </g>
      <g>
        <path class="cls-8" d="M2278.18,670.49v-3.14s-2.75-2.5-4.37.83c0,0-.34,7.12.1,8.44,0,0,.25,1.77,2.01,2.5,0,0,1.91.29,2.16-1.96l-.1-2.16s1.57.29,1.86-.74c0,0,5.94,1.57,12.42.1,0,0,.65,1.08,1.93.66l.04,3.5s2.44,2.97,4.81-.39l-.18-11.53s-3.29-1.24-4.56.04l-.07,3.85s-1.1-.07-2.23.78c0,0-6.93-1.27-11.84.14,0,0-.98-1.11-1.98-.93Z"/>
        <path class="cls-1" d="M2281.75,671.06s.74,1.77.21,3.54c0,0,5.94.74,8.7,0,0,0,.57-2.51-.18-3.5,0,0-2.69-1.03-8.73-.04Z"/>
      </g>
      <g>
        <path class="cls-8" d="M2278.2,703.05v-3.14s-2.75-2.5-4.37.83c0,0-.34,7.12.1,8.44,0,0,.25,1.77,2.01,2.5,0,0,1.91.29,2.16-1.96l-.1-2.16s1.57.29,1.86-.74c0,0,5.94,1.57,12.42.1,0,0,.65,1.08,1.93.66l.04,3.5s2.44,2.97,4.81-.39l-.18-11.53s-3.29-1.24-4.56.04l-.07,3.85s-1.1-.07-2.23.78c0,0-6.93-1.27-11.84.14,0,0-.98-1.11-1.98-.93Z"/>
        <path class="cls-1" d="M2281.77,703.63s.74,1.77.21,3.54c0,0,5.94.74,8.7,0,0,0,.57-2.51-.18-3.5,0,0-2.69-1.03-8.73-.04Z"/>
      </g>
      <g>
        <path class="cls-8" d="M2277.97,735.34v-3.14s-2.75-2.5-4.37.83c0,0-.34,7.12.1,8.44,0,0,.25,1.77,2.01,2.5,0,0,1.91.29,2.16-1.96l-.1-2.16s1.57.29,1.86-.74c0,0,5.94,1.57,12.42.1,0,0,.65,1.08,1.93.66l.04,3.5s2.44,2.97,4.81-.39l-.18-11.53s-3.29-1.24-4.56.04l-.07,3.85s-1.1-.07-2.23.78c0,0-6.93-1.27-11.84.14,0,0-.98-1.11-1.98-.93Z"/>
        <path class="cls-1" d="M2281.54,735.92s.74,1.77.21,3.54c0,0,5.94.74,8.7,0,0,0,.57-2.51-.18-3.5,0,0-2.69-1.03-8.73-.04Z"/>
      </g>
      <g>
        <path class="cls-8" d="M2278.09,767.52v-3.14s-2.75-2.5-4.37.83c0,0-.34,7.12.1,8.44,0,0,.25,1.77,2.01,2.5,0,0,1.91.29,2.16-1.96l-.1-2.16s1.57.29,1.86-.74c0,0,5.94,1.57,12.42.1,0,0,.65,1.08,1.93.66l.04,3.5s2.44,2.97,4.81-.39l-.18-11.53s-3.29-1.24-4.56.04l-.07,3.85s-1.1-.07-2.23.78c0,0-6.93-1.27-11.84.14,0,0-.98-1.11-1.98-.93Z"/>
        <path class="cls-1" d="M2281.66,768.09s.74,1.77.21,3.54c0,0,5.94.74,8.7,0,0,0,.57-2.51-.18-3.5,0,0-2.69-1.03-8.73-.04Z"/>
      </g>
      <g>
        <path class="cls-8" d="M2277.97,799.92v-3.14s-2.75-2.5-4.37.83c0,0-.34,7.12.1,8.44,0,0,.25,1.77,2.01,2.5,0,0,1.91.29,2.16-1.96l-.1-2.16s1.57.29,1.86-.74c0,0,5.94,1.57,12.42.1,0,0,.65,1.08,1.93.66l.04,3.5s2.44,2.97,4.81-.39l-.18-11.53s-3.29-1.24-4.56.04l-.07,3.85s-1.1-.07-2.23.78c0,0-6.93-1.27-11.84.14,0,0-.98-1.11-1.98-.93Z"/>
        <path class="cls-1" d="M2281.54,800.5s.74,1.77.21,3.54c0,0,5.94.74,8.7,0,0,0,.57-2.51-.18-3.5,0,0-2.69-1.03-8.73-.04Z"/>
      </g>
    </g>
</svg>