<?xml version="1.0" encoding="UTF-8"?>
<svg xmlns="http://www.w3.org/2000/svg" xmlns:xlink="http://www.w3.org/1999/xlink" viewBox="2116.142172942447 881.1633333333333 198.10463540894943 293.3558060434581">
  <defs xmlns="http://www.w3.org/2000/svg">
    <style>
      .cls-1, .cls-2, .cls-3, .cls-4, .cls-5, .cls-6, .cls-7, .cls-8, .cls-9, .cls-10, .cls-11, .cls-12, .cls-13, .cls-14, .cls-15 {
        stroke-miterlimit: 10;
      }

      .cls-1, .cls-2, .cls-3, .cls-6, .cls-7, .cls-8, .cls-9, .cls-10, .cls-11, .cls-12, .cls-13, .cls-14, .cls-15 {
        stroke: #000;
      }

      .cls-1, .cls-3, .cls-5, .cls-6, .cls-8, .cls-13 {
        stroke-width: 2px;
      }

      .cls-2, .cls-6, .cls-11, .cls-12 {
        fill: #fcfcfc;
      }

      .cls-3 {
        fill: #fdfefe;
      }

      .cls-4, .cls-5 {
        stroke: #00ff30;
      }

      .cls-4, .cls-5, .cls-10, .cls-13, .cls-14, .cls-15 {
        fill: none;
      }

      .cls-7, .cls-8, .cls-9 {
        fill: #fff;
      }

      .cls-9 {
        stroke-width: .75px;
      }

      .cls-11 {
        stroke-width: 5px;
      }

      .cls-12, .cls-15 {
        stroke-width: 3px;
      }

      .cls-14 {
        stroke-width: 4px;
      }
    </style>
  </defs>
  <g xmlns="http://www.w3.org/2000/svg">
      <path class="cls-8" d="M2306.31,1110.27l-28.31-1.19-.17-5.46-7.33-.34-.34-9.89,17.02.24c12.07-.34,11.4-8.04,11.4-8.04l-1.68-119.32c-1.74-4.51-7.04-4.68-7.04-4.68h-18.66l-.27-9.6,5.95-.27c1.22-.27,1.62-6.08,1.62-6.08l27.31.14c2.84,0,3.24-1.76,3.24-1.76l.14-16.09c0-3.38-3.24-3.51-3.24-3.51l-30.15-.27-.14-33.12c-7.84-10.95-14.6,0-14.6,0l.27,33.26-31.59-.02c-2.17.07-2.36,1.87-2.36,1.87l-.55,14.83c-.18,6.04,3.48,4.58,3.48,4.58l26.33.33c-.92,6.65,5.16,6.27,5.16,6.27l.22,11.42-17.1-3.45-36.3-2.9c-16.48-1.56-17.37,11.58-17.37,11.58l-.45,49.22-9.89,2.4c-.57-2.12-5.37-2.83-5.37-2.83-14.7-1.41-21.34-19.79-21.34-19.79-11.17-15.69-21.91,1.84-21.91,1.84-9.19-2.97-10.74,4.38-10.74,4.38l-.4,43.45c-.34,9.65,10.51,7.1,10.51,7.1l2.8,3.14c13.03,15.05,20.27-1.35,20.27-1.35,3.47-17.76,20.27-16.79,20.27-16.79.39-1.35,4.63-3.47,4.63-3.47,2.51-1.54,10.62.19,10.62.19l.77,49.99c.77,12.55,12.55,12.35,12.55,12.35,41.88-.58,58.36-8.88,58.36-8.88l.3,14.06-3.81.06-.18,6.31-25.91-.04c-4.95,0-4.95,3.41-4.95,3.41l-.17,13.64c.68,2.56,3.58,3.75,3.58,3.75l74.02-.17c3.92,0,4.43-2.9,4.43-2.9v-12.11c.17-5.63-2.9-5.46-2.9-5.46ZM2272.67,971.02l6.99.49,1.3,48.64s-.65,3.9-11.22.81l-.16-50.1,3.09.16ZM2269.09,1033.73l10.92.41-.28,44.51-10.64-.55v-44.37Z"/>
      <line class="cls-13" x1="2180.76" y1="1019.68" x2="2181.03" y2="1035.28"/>
      <line class="cls-13" x1="2262.16" y1="924.26" x2="2274.94" y2="924.26"/>
      <path class="cls-13" d="M2281.46,961.36s-3.54,9.04.21,16.02l14.81-.08"/>
      <path class="cls-8" d="M2261.09,1130.71l.24,34.78s5.98,9.23,14.46-.25l-.72-34.41"/>
      <path class="cls-13" d="M2279.51,1093.11s-3.21-9.32,1.63-14.67l17.15-.33"/>
      <line class="cls-10" x1="2256.06" y1="945.31" x2="2278.29" y2="945.31"/>
      <path class="cls-13" d="M2132.27,999.61s-3.77.96-3.3,20.5l.31,24.55s.47,7.69,2.35,9.88"/>
      <line class="cls-13" x1="2262.32" y1="952" x2="2270.92" y2="951.98"/>
      <path class="cls-7" d="M2269.18,954.06c-2.76-2.76-5.63,0-5.63,0l-.23,147.41s2.88,3.79,5.67,0l.19-147.41Z"/>
      <path class="cls-9" d="M2267.84,922.98l-.28-30.02s.92-1.35,1.56,0,.43,30.09.43,30.09l-1.7-.07Z"/>
      <path class="cls-7" d="M2266.97,1132.5h2.24l-.32,30.19s-1.34,1.98-2.24,0l.32-30.19Z"/>
      <line class="cls-10" x1="2228.5" y1="1117.27" x2="2307.76" y2="1117.64"/>
      <line class="cls-10" x1="2228.44" y1="1124.35" x2="2307.7" y2="1124.72"/>
      <line class="cls-10" x1="2227.93" y1="931.09" x2="2308.13" y2="931.46"/>
      <line class="cls-10" x1="2227.59" y1="938.7" x2="2308.51" y2="938.97"/>
      <path d="M2265.18,982.9c.09,0,.18.01.27.01,1.83.05,3.34,1.42,3.36,3.24l.23,17.34c.02,1.42-.87,2.71-2.22,3.16-.81.27-1.76.42-2.74.21-1.48-.32-2.49-1.7-2.48-3.21l.08-17.5c0-1.9,1.62-3.39,3.51-3.26Z"/>
      <path d="M2264.77,1046.73c.09,0,.18.01.27.01,1.83.05,3.34,1.42,3.36,3.24l.23,17.34c.02,1.42-.87,2.71-2.22,3.16-.81.27-1.76.42-2.74.21-1.48-.32-2.49-1.7-2.48-3.21l.08-17.5c0-1.9,1.62-3.39,3.51-3.26Z"/>
    </g>
</svg>