<?xml version="1.0" encoding="UTF-8"?>
<svg xmlns="http://www.w3.org/2000/svg" xmlns:xlink="http://www.w3.org/1999/xlink" viewBox="1562.7511702873803 874.5999999999998 233.0443852681742 224.0915340026678">
  <defs xmlns="http://www.w3.org/2000/svg">
    <style>
      .cls-1, .cls-2, .cls-3, .cls-4, .cls-5, .cls-6, .cls-7, .cls-8, .cls-9, .cls-10, .cls-11, .cls-12, .cls-13, .cls-14, .cls-15 {
        stroke-miterlimit: 10;
      }

      .cls-1, .cls-2, .cls-3, .cls-6, .cls-7, .cls-8, .cls-9, .cls-10, .cls-11, .cls-12, .cls-13, .cls-14, .cls-15 {
        stroke: #000;
      }

      .cls-1, .cls-3, .cls-5, .cls-6, .cls-8, .cls-13 {
        stroke-width: 2px;
      }

      .cls-2, .cls-6, .cls-11, .cls-12 {
        fill: #fcfcfc;
      }

      .cls-3 {
        fill: #fdfefe;
      }

      .cls-4, .cls-5 {
        stroke: #00ff30;
      }

      .cls-4, .cls-5, .cls-10, .cls-13, .cls-14, .cls-15 {
        fill: none;
      }

      .cls-7, .cls-8, .cls-9 {
        fill: #fff;
      }

      .cls-9 {
        stroke-width: .75px;
      }

      .cls-11 {
        stroke-width: 5px;
      }

      .cls-12, .cls-15 {
        stroke-width: 3px;
      }

      .cls-14 {
        stroke-width: 4px;
      }
    </style>
  </defs>
  <g xmlns="http://www.w3.org/2000/svg">
      <path class="cls-3" d="M1788.1,986.51l-60.19-.19v-17.87l-9.24-8.89,2.5-3.45,26.28-36.42c6.74-9.6-1.85-15.69-1.85-15.69l-58.56.23.11-10.22,26.71-.44c7.54-9.09-.44-13.97-.44-13.97l-56.35.18-14.16.04c-4,8.86,2.14,13.59,2.14,13.59l11.71.17,13.91.2.19,10.02-56.38.45c-11.53,1.8-4.94,14.37-4.94,14.37l30.39,40.87c-2.4.9-8.53,8.83-8.53,8.83l.3,18.26-61.22.3c-5.54,2.69-.93,7.89-.93,7.89l87.38.59-.29,56.59c-.19,8.46,13.73,11.29,13.73,11.29l.75,25.21c9.22,12.42,16.55-1.13,16.55-1.13l.56-24.83c14.3-1.32,13.36-8.09,13.36-8.09l-.02-59.11,86.55.04c6.02-4.89,0-8.84,0-8.84ZM1670.1,936.44l.93,23.68s-.23,5.57-10.68-.7l-27.17-35.29h37.85s3.72,4.64-.93,12.31ZM1699.27,958.15c-9.63,6.05-9.88.73-9.88.73l.7-22.62c-4.35-7.29-.94-11.74-.94-11.74l35.04-.25-24.91,33.87Z"/>
      <line class="cls-3" x1="1656.76" y1="880.39" x2="1656.7" y2="892.87"/>
      <line class="cls-3" x1="1703.04" y1="880.21" x2="1702.98" y2="893.17"/>
      <polygon class="cls-13" points="1663.47 975.93 1694.66 975.73 1681.58 984.58 1663.47 975.93"/>
      <path class="cls-8" d="M1570.45,986.89s-5.71,3.28-.03,8.32l217.68.14s6.38-5.45-.6-8.77l-217.05.31Z"/>
      <path class="cls-8" d="M1676.54,973.3s-5.1,16.95.41,23.85c0,0,3.03,2.48,6.06-.55,0,0,3.31-16.54.14-23.29l-2.09-2.24-.55-28.72-2.81.28v28.55l-1.17,2.13Z"/>
      <path class="cls-3" d="M1613.61,904.25s-11.7,2.72-2.44,16.31l136.28-.87s6.82-8.45-1.9-15.67l-131.94.23Z"/>
      <path class="cls-13" d="M1639.91,959.5s15.03,15.18,18.84,15.79"/>
      <path class="cls-13" d="M1718.67,959.55s-9.46,11.97-18.61,15.86"/>
      <polygon class="cls-13" points="1673.19 936.24 1673.19 938.58 1684.69 938.49 1684.6 936.15 1673.19 936.24"/>
      <path class="cls-3" d="M1670.3,893.41s8.98-13.76,17.16.43"/>
    </g>
</svg>