<?xml version="1.0" encoding="UTF-8"?>
<svg xmlns="http://www.w3.org/2000/svg" xmlns:xlink="http://www.w3.org/1999/xlink" viewBox="1010.5960946745563 381.63516298654713 361.0093869493114 352.79235688674123">
  <defs xmlns="http://www.w3.org/2000/svg">
    <style>
      .cls-1, .cls-2, .cls-3, .cls-4, .cls-5, .cls-6, .cls-7, .cls-8, .cls-9, .cls-10, .cls-11, .cls-12, .cls-13, .cls-14, .cls-15 {
        stroke-miterlimit: 10;
      }

      .cls-1, .cls-2, .cls-3, .cls-6, .cls-7, .cls-8, .cls-9, .cls-10, .cls-11, .cls-12, .cls-13, .cls-14, .cls-15 {
        stroke: #000;
      }

      .cls-1, .cls-3, .cls-5, .cls-6, .cls-8, .cls-13 {
        stroke-width: 2px;
      }

      .cls-2, .cls-6, .cls-11, .cls-12 {
        fill: #fcfcfc;
      }

      .cls-3 {
        fill: #fdfefe;
      }

      .cls-4, .cls-5 {
        stroke: #00ff30;
      }

      .cls-4, .cls-5, .cls-10, .cls-13, .cls-14, .cls-15 {
        fill: none;
      }

      .cls-7, .cls-8, .cls-9 {
        fill: #fff;
      }

      .cls-9 {
        stroke-width: .75px;
      }

      .cls-11 {
        stroke-width: 5px;
      }

      .cls-12, .cls-15 {
        stroke-width: 3px;
      }

      .cls-14 {
        stroke-width: 4px;
      }
    </style>
  </defs>
  <g xmlns="http://www.w3.org/2000/svg">
      <path class="cls-6" d="M1073.51,570.79l187.72,157.35s5.67,4.63,11.25-3.67c0,0,91.81-116.59,92.47-117.25s3.52-6.32-.27-10.4l-184.29-156.33-106.88,130.3Z"/>
      <polyline class="cls-13" points="1097.24 548.71 1275.24 700.05 1284.26 707.72"/>
      <line class="cls-13" x1="1256.88" y1="723.31" x2="1274.57" y2="700.66"/>
      <line class="cls-13" x1="1163.38" y1="465.27" x2="1349.82" y2="624.24"/>
      <line class="cls-13" x1="1359.72" y1="593.46" x2="1341.78" y2="616.05"/>
      <path class="cls-5" d="M1055.81,494.29s-3.87-4.66,1.28-11.53c0,0,31.33-47,40.88-50.43,0,0,2.79-1.07,6.55-.11,0,0,4.29-8.69,11.8-6.97,0,0,3.43.75,7.73,4.83s7.22,6.41,7.22,6.41c0,0,10.26-7.03,18.81-5.51,0,0,10.07,2.09,11.59,13.49,0,0,2.28,6.84-10.83,21.28l-63.28,80.96s-15.96,14.63-24.52-5.32l2.08-19.56-11.78-10.38s-5.52-7.21,1.03-14.72l1.45-2.43Z"/>
      <line class="cls-13" x1="1345.65" y1="621.81" x2="1280.64" y2="704.04"/>
      <path class="cls-8" d="M1019.98,526.99s-10.5-10,1-25.37l86.63-109.88s10.2-10.44,20.15-1.46l127.8,108.95s3.49,12.74-10.65,12.04l-65.82-55.28s-6.57-3.31-13.48,4.87l-73.84,93.65s-3.69,8.84,1.42,12.97l64.81,55.92s2.5,13.91-10.02,12.66l-115.18-98.15-12.83-10.93Z"/>
      <path class="cls-13" d="M1034.11,538.09s6.02,1.54,13.05-6.64l18.14-22.85s.77-1.16,2.47.15l8.42,7.18s1.12.98-.3,2.82l-19.41,24.34s-6.16,5.69-10.51,5.11l-11.86-10.11Z"/>
      <path class="cls-13" d="M1140.81,402.39s2.38,5.5-3.34,13.01l-18.43,23.71s-1.64,1.71-.07,3.49l8.77,7.58s1.19,1.19,2.68-.82c0,0,18.13-23.49,20.07-26.24,0,0,3.64-4.53,2.97-9.81l-12.63-10.93Z"/>
      <path class="cls-13" d="M1050.31,465.37s4.09,4.4,16.42-10.88c0,0,12.87-15.49,9.93-21.6"/>
      <path class="cls-8" d="M1059.69,487.71s34.49-48.61,40.58-51.17c0,0,3.88-2.21,7.68,1.06l15.88,16.76s2.38,3.62-.88,8.65c0,0-30.85,42.96-37.96,47.43,0,0-4.03,2.9-8.25-1.01,0,0-15.36-11.28-17.46-13.87,0,0-2.4-3.72.43-7.86Z"/>
      <path class="cls-13" d="M1073.54,528.81s-8.52,5.8-5.98,12.51c0,0,2.21,8.01,11.05,5.25,0,0,5.62-4.24,6.72-8.66l-11.79-9.1Z"/>
      <line class="cls-13" x1="1149.64" y1="454.84" x2="1084.79" y2="537.04"/>
      <path class="cls-13" d="M1139.2,443.92l11.12,10.67s8.89-5.56,5.89-13.56c0,0-2.89-7-9.9-4.23,0,0-2.78.11-7.12,7.12Z"/>
    </g>
</svg>